<svg width="16" height="16" viewBox="0 0 16 16" fill="none" xmlns="http://www.w3.org/2000/svg">
<path d="M6.96684 4.97998C6.84017 4.97998 6.71349 4.93333 6.61349 4.83333L4.48682 2.70667L2.36015 4.83333C2.16682 5.02667 1.84682 5.02667 1.65348 4.83333C1.46015 4.64 1.46015 4.32 1.65348 4.12667L4.13351 1.64665C4.22684 1.55331 4.35348 1.5 4.48682 1.5C4.62015 1.5 4.74684 1.55331 4.84017 1.64665L7.32015 4.12667C7.51348 4.32 7.51348 4.64 7.32015 4.83333C7.22015 4.93333 7.0935 4.97998 6.96684 4.97998Z" fill="#212121"/>
<path d="M4.48663 14.5C4.2133 14.5 3.98663 14.2733 3.98663 14V2C3.98663 1.72667 4.2133 1.5 4.48663 1.5C4.75997 1.5 4.98663 1.72667 4.98663 2V14C4.98663 14.2733 4.75997 14.5 4.48663 14.5Z" fill="#212121"/>
<path d="M11.52 14.4998C11.3867 14.4998 11.26 14.4465 11.1667 14.3532L8.68669 11.8731C8.49335 11.6798 8.49335 11.3598 8.68669 11.1665C8.88002 10.9732 9.20002 10.9732 9.39335 11.1665L11.52 13.2932L13.6466 11.1665C13.84 10.9732 14.16 10.9732 14.3534 11.1665C14.5467 11.3598 14.5467 11.6798 14.3534 11.8731L11.8733 14.3532C11.78 14.4465 11.6467 14.4998 11.52 14.4998Z" fill="#212121"/>
<path d="M11.5134 14.5C11.24 14.5 11.0134 14.2733 11.0134 14V2C11.0134 1.72667 11.24 1.5 11.5134 1.5C11.7867 1.5 12.0134 1.72667 12.0134 2V14C12.0134 14.2733 11.7934 14.5 11.5134 14.5Z" fill="#212121"/>
</svg>
