<svg width="24" height="24" viewBox="0 0 24 24" fill="none" xmlns="http://www.w3.org/2000/svg">
<path fill-rule="evenodd" clip-rule="evenodd" d="M3.63378 2.9898C3.13273 3.29489 2.71997 3.96079 2.71997 5.09046V19.9305C2.71997 20.6423 3.32011 21.2505 4.07997 21.2505H11.75V7.41046C11.75 7.05485 11.6122 6.61435 11.3505 6.19911C11.0891 5.78435 10.7478 5.46447 10.4202 5.30406L5.98021 3.12408C5.98012 3.12403 5.9803 3.12412 5.98021 3.12408C4.94012 2.61499 4.13846 2.6825 3.63378 2.9898ZM2.85366 1.70862C3.92144 1.05845 5.28996 1.11608 6.63973 1.77685L11.0798 3.95686C11.0799 3.95691 11.0797 3.95681 11.0798 3.95686C11.712 4.26647 12.2459 4.80667 12.6195 5.39931C12.9927 5.99157 13.25 6.70607 13.25 7.41046V22.0005C13.25 22.4147 12.9142 22.7505 12.5 22.7505H4.07997C2.51983 22.7505 1.21997 21.4986 1.21997 19.9305V5.09046C1.21997 3.60013 1.78221 2.36103 2.85366 1.70862Z" fill="#212121"/>
<path fill-rule="evenodd" clip-rule="evenodd" d="M12.0281 9.838C12.204 9.6956 12.4347 9.64023 12.6561 9.68733L13.1343 9.78907L17.6323 10.7987L17.6342 10.7991L19.6609 11.2484C19.6612 11.2484 19.6607 11.2483 19.6609 11.2484C20.3874 11.4081 21.1483 11.6949 21.7351 12.2866C22.3314 12.8879 22.6667 13.7204 22.7082 14.8066C22.7203 14.907 22.7201 14.997 22.72 15.0487C22.72 15.053 22.72 15.0571 22.72 15.0609V18.8409C22.72 20.022 22.4477 21.0439 21.7303 21.7612C21.013 22.4786 19.9911 22.7509 18.81 22.7509H12.5C12.0858 22.7509 11.75 22.4151 11.75 22.0009V10.4209C11.75 10.1946 11.8522 9.9804 12.0281 9.838ZM13.25 11.3524L17.3058 12.2627L17.3077 12.2631L19.3377 12.7131L19.3391 12.7134C19.9324 12.8438 20.3719 13.0422 20.6699 13.3427C20.9511 13.6263 21.1849 14.0806 21.2104 14.8943C21.2113 14.9256 21.2143 14.9567 21.2191 14.9876C21.2192 14.9887 21.2193 14.9902 21.2193 14.9921C21.2196 14.9976 21.2198 15.0055 21.2199 15.0173L21.22 15.0609V18.8409C21.22 19.8198 20.9923 20.3779 20.6697 20.7006C20.347 21.0233 19.7889 21.2509 18.81 21.2509H13.25V11.3524Z" fill="#212121"/>
<path fill-rule="evenodd" clip-rule="evenodd" d="M4.75 9C4.75 8.58579 5.08579 8.25 5.5 8.25H8.97C9.38421 8.25 9.72 8.58579 9.72 9C9.72 9.41421 9.38421 9.75 8.97 9.75H5.5C5.08579 9.75 4.75 9.41421 4.75 9Z" fill="#212121"/>
<path fill-rule="evenodd" clip-rule="evenodd" d="M4.75 13C4.75 12.5858 5.08579 12.25 5.5 12.25H8.97C9.38421 12.25 9.72 12.5858 9.72 13C9.72 13.4142 9.38421 13.75 8.97 13.75H5.5C5.08579 13.75 4.75 13.4142 4.75 13Z" fill="#212121"/>
<path fill-rule="evenodd" clip-rule="evenodd" d="M12.5013 9.93499C12.6791 9.79265 12.912 9.73884 13.1342 9.78872L17.6342 10.7987C17.9766 10.8756 18.22 11.1796 18.22 11.5305V14.7505C18.22 16.4047 16.8742 17.7505 15.22 17.7505C13.5658 17.7505 12.22 16.4047 12.22 14.7505V10.5205C12.22 10.2927 12.3235 10.0773 12.5013 9.93499ZM13.72 11.4575V14.7505C13.72 15.5763 14.3942 16.2505 15.22 16.2505C16.0458 16.2505 16.72 15.5763 16.72 14.7505V12.1308L13.72 11.4575Z" fill="#212121"/>
<path fill-rule="evenodd" clip-rule="evenodd" d="M17.0005 10.9454C17.1779 10.803 17.4103 10.7488 17.6323 10.7981L19.6609 11.2478C19.6611 11.2478 19.6614 11.2479 19.6616 11.2479C20.3881 11.4076 21.1483 11.6942 21.735 12.2859C22.3388 12.8948 22.675 13.7406 22.7096 14.8469C22.7102 14.8674 22.71 14.8879 22.709 14.9084C22.6289 16.4829 21.3238 17.7503 19.72 17.7503C18.0658 17.7503 16.72 16.4045 16.72 14.7503V11.5303C16.72 11.3029 16.8232 11.0877 17.0005 10.9454ZM18.22 12.4647V14.7503C18.22 15.5761 18.8942 16.2503 19.72 16.2503C20.5064 16.2503 21.1549 15.6331 21.2092 14.861C21.1786 14.0677 20.9473 13.6219 20.6699 13.3421C20.3718 13.0415 19.9324 12.8432 19.339 12.7128L19.3377 12.7125L19.3377 12.7125L18.22 12.4647Z" fill="#212121"/>
</svg>
