<svg width="32" height="32" viewBox="0 0 32 32" fill="none" xmlns="http://www.w3.org/2000/svg">
<path d="M16 17.7338C15.8267 17.7338 15.6533 17.6938 15.4933 17.6005L3.72001 10.7871C3.25334 10.5071 3.08001 9.89379 3.36001 9.41379C3.64001 8.93379 4.25334 8.77379 4.73334 9.05379L16 15.5738L27.2 9.09379C27.68 8.81379 28.2933 8.98713 28.5733 9.45379C28.8533 9.93379 28.68 10.5471 28.2133 10.8271L16.52 17.6005C16.3467 17.6805 16.1733 17.7338 16 17.7338Z" fill="#212121"/>
<path d="M16 29.8131C15.4533 29.8131 15 29.3597 15 28.8131V16.7197C15 16.1731 15.4533 15.7197 16 15.7197C16.5467 15.7197 17 16.1731 17 16.7197V28.8131C17 29.3597 16.5467 29.8131 16 29.8131Z" fill="#212121"/>
<path d="M16 30.3337C14.8266 30.3337 13.6666 30.0803 12.7466 29.5737L5.62665 25.6137C3.69331 24.547 2.18665 21.9737 2.18665 19.7603V12.227C2.18665 10.0137 3.69331 7.45366 5.62665 6.37366L12.7466 2.42699C14.5733 1.41366 17.4266 1.41366 19.2533 2.42699L26.3733 6.38699C28.3066 7.45366 29.8133 10.027 29.8133 12.2403V19.7737C29.8133 21.987 28.3066 24.547 26.3733 25.627L19.2533 29.5737C18.3333 30.0803 17.1733 30.3337 16 30.3337ZM16 3.66699C15.16 3.66699 14.3333 3.84033 13.72 4.17366L6.59998 8.13366C5.31998 8.84033 4.18665 10.7603 4.18665 12.227V19.7603C4.18665 21.227 5.31998 23.147 6.59998 23.867L13.72 27.827C14.9333 28.507 17.0666 28.507 18.28 27.827L25.4 23.867C26.68 23.147 27.8133 21.2403 27.8133 19.7603V12.227C27.8133 10.7603 26.68 8.84033 25.4 8.12033L18.28 4.16033C17.6666 3.84033 16.84 3.66699 16 3.66699Z" fill="#212121"/>
</svg>
