<svg width="24" height="24" viewBox="0 0 24 24" fill="none" xmlns="http://www.w3.org/2000/svg">
<path fill-rule="evenodd" clip-rule="evenodd" d="M15.75 6.50962C15.75 4.31627 13.8655 2.55947 11.6324 2.77612L11.6297 2.77638C9.80824 2.94638 8.25 4.79207 8.25 6.69962V7.66962C8.25 8.08384 7.91421 8.41962 7.5 8.41962C7.08579 8.41962 6.75 8.08384 6.75 7.66962V6.69962C6.75 4.10762 8.81106 1.53374 11.4889 1.283C14.6152 0.980488 17.25 3.44342 17.25 6.50962V7.88962C17.25 8.30384 16.9142 8.63962 16.5 8.63962C16.0858 8.63962 15.75 8.30384 15.75 7.88962V6.50962Z" fill="#212121"/>
<path fill-rule="evenodd" clip-rule="evenodd" d="M3.37351 8.81723C4.25892 7.76457 5.77694 7.25 7.99997 7.25H16C18.223 7.25 19.741 7.76457 20.6264 8.81723C21.5047 9.8614 21.5869 11.2337 21.4454 12.5125L21.4443 12.523L20.695 18.5167C20.5844 19.5429 20.3255 20.6669 19.4096 21.5037C18.4984 22.3361 17.0868 22.75 15 22.75H8.99997C6.91312 22.75 5.5015 22.3361 4.59036 21.5037C3.67441 20.6669 3.41551 19.5429 3.30496 18.5166L2.55445 12.5125C2.41294 11.2337 2.49524 9.8614 3.37351 8.81723ZM4.04485 12.3423L4.79582 18.3501C4.89567 19.282 5.10252 19.9399 5.60209 20.3963C6.10844 20.8589 7.06682 21.25 8.99997 21.25H15C16.9331 21.25 17.8915 20.8589 18.3979 20.3963C18.8974 19.9399 19.1044 19.282 19.2042 18.3501L19.2057 18.337L19.9551 12.3422C20.0826 11.1837 19.9495 10.3428 19.4785 9.78277C19.0139 9.23043 18.0469 8.75 16 8.75H7.99997C5.95301 8.75 4.98602 9.23043 4.52143 9.78277C4.05041 10.3428 3.91732 11.1838 4.04485 12.3423Z" fill="#212121"/>
<path fill-rule="evenodd" clip-rule="evenodd" d="M14.4955 12C14.4955 11.4477 14.9432 11 15.4955 11H15.5045C16.0568 11 16.5045 11.4477 16.5045 12C16.5045 12.5523 16.0568 13 15.5045 13H15.4955C14.9432 13 14.4955 12.5523 14.4955 12Z" fill="#212121"/>
<path fill-rule="evenodd" clip-rule="evenodd" d="M7.49451 12C7.49451 11.4477 7.94222 11 8.49451 11H8.50349C9.05577 11 9.50349 11.4477 9.50349 12C9.50349 12.5523 9.05577 13 8.50349 13H8.49451C7.94222 13 7.49451 12.5523 7.49451 12Z" fill="#212121"/>
</svg>
