<svg width="20" height="20" viewBox="0 0 20 20" fill="none" xmlns="http://www.w3.org/2000/svg">
<path fill-rule="evenodd" clip-rule="evenodd" d="M1.55276 2.68943C1.50297 3.08428 1.50001 3.57979 1.50001 4.25C1.50001 4.92286 1.50051 5.41863 1.54786 5.81555C1.59451 6.20665 1.6774 6.40107 1.76972 6.51683C1.85304 6.62131 2.01235 6.74694 2.4036 6.84464C2.80681 6.94532 3.39186 7 4.25001 7C5.10815 7 5.6932 6.94532 6.09642 6.84464C6.48766 6.74694 6.64697 6.62131 6.73029 6.51683C6.82261 6.40107 6.9055 6.20665 6.95216 5.81555C6.99951 5.41863 7.00001 4.92286 7.00001 4.25C7.00001 3.57979 6.99704 3.08428 6.94726 2.68943C6.89821 2.30042 6.81324 2.10427 6.71816 1.98636C6.63148 1.87889 6.46867 1.75281 6.07925 1.6552C5.67791 1.55461 5.09779 1.5 4.25001 1.5C3.40222 1.5 2.82211 1.55461 2.42077 1.6552C2.03134 1.75281 1.86853 1.87889 1.78185 1.98636C1.68677 2.10427 1.6018 2.30042 1.55276 2.68943ZM2.05609 0.200207C2.63649 0.0547374 3.36184 0 4.25001 0C5.13817 0 5.86352 0.0547374 6.44392 0.200207C7.03624 0.348663 7.53144 0.605356 7.88577 1.04473C8.2317 1.47367 8.37075 1.98844 8.43548 2.5018C8.49946 3.00931 8.50001 3.6076 8.50001 4.25C8.50001 4.26886 8.50001 4.28768 8.50001 4.30647C8.50006 4.92492 8.50011 5.50268 8.4416 5.99323C8.38061 6.50449 8.24682 7.02099 7.90302 7.45208C7.55023 7.89445 7.05398 8.15159 6.45981 8.29995C5.87762 8.44533 5.1474 8.5 4.25001 8.5C3.35261 8.5 2.62239 8.44533 2.0402 8.29995C1.44603 8.15159 0.949781 7.89445 0.59699 7.45208C0.253189 7.02099 0.119406 6.50449 0.058417 5.99323C-0.000100929 5.50268 -5.06237e-05 4.92492 3.25892e-06 4.30647C4.86825e-06 4.28768 6.47757e-06 4.26886 6.47757e-06 4.25C6.47757e-06 3.6076 0.000552095 3.00931 0.0645374 2.5018C0.12926 1.98844 0.268313 1.47367 0.614241 1.04473C0.968578 0.605356 1.46378 0.348663 2.05609 0.200207Z" fill="#9E9E9E"/>
<path fill-rule="evenodd" clip-rule="evenodd" d="M12.5528 2.68943C12.503 3.08428 12.5 3.57979 12.5 4.25C12.5 4.92286 12.5005 5.41863 12.5479 5.81555C12.5945 6.20665 12.6774 6.40107 12.7697 6.51683C12.853 6.62131 13.0124 6.74694 13.4036 6.84464C13.8068 6.94532 14.3919 7 15.25 7C16.1081 7 16.6932 6.94532 17.0964 6.84464C17.4877 6.74694 17.647 6.62131 17.7303 6.51683C17.8226 6.40107 17.9055 6.20665 17.9522 5.81555C17.9995 5.41863 18 4.92286 18 4.25C18 3.57979 17.997 3.08428 17.9473 2.68943C17.8982 2.30042 17.8132 2.10427 17.7182 1.98636C17.6315 1.87889 17.4687 1.75281 17.0792 1.6552C16.6779 1.55461 16.0978 1.5 15.25 1.5C14.4022 1.5 13.8221 1.55461 13.4208 1.6552C13.0313 1.75281 12.8685 1.87889 12.7819 1.98636C12.6868 2.10427 12.6018 2.30042 12.5528 2.68943ZM13.0561 0.200207C13.6365 0.0547374 14.3618 0 15.25 0C16.1382 0 16.8635 0.0547374 17.4439 0.200207C18.0362 0.348663 18.5314 0.605356 18.8858 1.04473C19.2317 1.47367 19.3708 1.98844 19.4355 2.5018C19.4995 3.00931 19.5 3.6076 19.5 4.25C19.5 4.26886 19.5 4.28768 19.5 4.30647C19.5001 4.92492 19.5001 5.50268 19.4416 5.99323C19.3806 6.50449 19.2468 7.02099 18.903 7.45208C18.5502 7.89445 18.054 8.15159 17.4598 8.29995C16.8776 8.44533 16.1474 8.5 15.25 8.5C14.3526 8.5 13.6224 8.44533 13.0402 8.29995C12.446 8.15159 11.9498 7.89445 11.597 7.45208C11.2532 7.02099 11.1194 6.50449 11.0584 5.99323C10.9999 5.50268 10.9999 4.92492 11 4.30647C11 4.28768 11 4.26886 11 4.25C11 3.6076 11.0006 3.00931 11.0645 2.5018C11.1293 1.98844 11.2683 1.47367 11.6142 1.04473C11.9686 0.605356 12.4638 0.348663 13.0561 0.200207Z" fill="#9E9E9E"/>
<path fill-rule="evenodd" clip-rule="evenodd" d="M1.55276 13.6894C1.50297 14.0843 1.50001 14.5798 1.50001 15.25C1.50001 15.9229 1.50051 16.4186 1.54786 16.8155C1.59451 17.2067 1.6774 17.4011 1.76972 17.5168C1.85304 17.6213 2.01235 17.7469 2.4036 17.8446C2.80681 17.9453 3.39186 18 4.25001 18C5.10815 18 5.6932 17.9453 6.09642 17.8446C6.48766 17.7469 6.64697 17.6213 6.73029 17.5168C6.82261 17.4011 6.9055 17.2067 6.95216 16.8155C6.99951 16.4186 7.00001 15.9229 7.00001 15.25C7.00001 14.5798 6.99704 14.0843 6.94726 13.6894C6.89821 13.3004 6.81324 13.1043 6.71816 12.9864C6.63148 12.8789 6.46867 12.7528 6.07925 12.6552C5.67791 12.5546 5.09779 12.5 4.25001 12.5C3.40222 12.5 2.82211 12.5546 2.42077 12.6552C2.03134 12.7528 1.86853 12.8789 1.78185 12.9864C1.68677 13.1043 1.6018 13.3004 1.55276 13.6894ZM2.05609 11.2002C2.63649 11.0547 3.36184 11 4.25001 11C5.13817 11 5.86352 11.0547 6.44392 11.2002C7.03624 11.3487 7.53144 11.6054 7.88577 12.0447C8.2317 12.4737 8.37075 12.9884 8.43548 13.5018C8.49946 14.0093 8.50001 14.6076 8.50001 15.25C8.50001 15.2689 8.50001 15.2877 8.50001 15.3065C8.50006 15.9249 8.50011 16.5027 8.4416 16.9932C8.38061 17.5045 8.24682 18.021 7.90302 18.4521C7.55023 18.8945 7.05398 19.1516 6.45981 19.3C5.87762 19.4453 5.1474 19.5 4.25001 19.5C3.35261 19.5 2.62239 19.4453 2.0402 19.3C1.44603 19.1516 0.949781 18.8945 0.59699 18.4521C0.253189 18.021 0.119406 17.5045 0.058417 16.9932C-0.000100929 16.5027 -5.06237e-05 15.9249 3.25892e-06 15.3065C4.86825e-06 15.2877 6.47757e-06 15.2689 6.47757e-06 15.25C6.47757e-06 14.6076 0.000552095 14.0093 0.0645374 13.5018C0.12926 12.9884 0.268313 12.4737 0.614241 12.0447C0.968578 11.6054 1.46378 11.3487 2.05609 11.2002Z" fill="#9E9E9E"/>
<path fill-rule="evenodd" clip-rule="evenodd" d="M12.5528 13.6894C12.503 14.0843 12.5 14.5798 12.5 15.25C12.5 15.9229 12.5005 16.4186 12.5479 16.8155C12.5945 17.2067 12.6774 17.4011 12.7697 17.5168C12.853 17.6213 13.0124 17.7469 13.4036 17.8446C13.8068 17.9453 14.3919 18 15.25 18C16.1081 18 16.6932 17.9453 17.0964 17.8446C17.4877 17.7469 17.647 17.6213 17.7303 17.5168C17.8226 17.4011 17.9055 17.2067 17.9522 16.8155C17.9995 16.4186 18 15.9229 18 15.25C18 14.5798 17.997 14.0843 17.9473 13.6894C17.8982 13.3004 17.8132 13.1043 17.7182 12.9864C17.6315 12.8789 17.4687 12.7528 17.0792 12.6552C16.6779 12.5546 16.0978 12.5 15.25 12.5C14.4022 12.5 13.8221 12.5546 13.4208 12.6552C13.0313 12.7528 12.8685 12.8789 12.7819 12.9864C12.6868 13.1043 12.6018 13.3004 12.5528 13.6894ZM13.0561 11.2002C13.6365 11.0547 14.3618 11 15.25 11C16.1382 11 16.8635 11.0547 17.4439 11.2002C18.0362 11.3487 18.5314 11.6054 18.8858 12.0447C19.2317 12.4737 19.3708 12.9884 19.4355 13.5018C19.4995 14.0093 19.5 14.6076 19.5 15.25C19.5 15.2689 19.5 15.2877 19.5 15.3065C19.5001 15.9249 19.5001 16.5027 19.4416 16.9932C19.3806 17.5045 19.2468 18.021 18.903 18.4521C18.5502 18.8945 18.054 19.1516 17.4598 19.3C16.8776 19.4453 16.1474 19.5 15.25 19.5C14.3526 19.5 13.6224 19.4453 13.0402 19.3C12.446 19.1516 11.9498 18.8945 11.597 18.4521C11.2532 18.021 11.1194 17.5045 11.0584 16.9932C10.9999 16.5027 10.9999 15.9249 11 15.3065C11 15.2877 11 15.2689 11 15.25C11 14.6076 11.0006 14.0093 11.0645 13.5018C11.1293 12.9884 11.2683 12.4737 11.6142 12.0447C11.9686 11.6054 12.4638 11.3487 13.0561 11.2002Z" fill="#9E9E9E"/>
</svg>
