<svg width="20" height="20" viewBox="0 0 20 20" fill="none" xmlns="http://www.w3.org/2000/svg">
<path fill-rule="evenodd" clip-rule="evenodd" d="M11.9445 9.29703H14.4817C14.8664 9.29703 15.1687 8.97897 15.1687 8.59543C15.1687 8.20254 14.8664 7.89383 14.4817 7.89383H11.9445C11.5598 7.89383 11.2576 8.20254 11.2576 8.59543C11.2576 8.97897 11.5598 9.29703 11.9445 9.29703ZM17.4952 4.43355C18.0539 4.43355 18.4203 4.62999 18.7867 5.06031C19.1531 5.49062 19.2172 6.10803 19.1348 6.66838L18.2646 12.805C18.0997 13.9847 17.1105 14.8537 15.9472 14.8537H5.95419C4.73598 14.8537 3.72843 13.9005 3.62767 12.6657L2.785 2.46813L1.40191 2.22491C1.03553 2.15943 0.779058 1.79459 0.843175 1.42041C0.907292 1.0378 1.26451 0.78429 1.64005 0.841354L3.8246 1.17719C4.13603 1.23425 4.36501 1.49524 4.39249 1.8133L4.56652 3.90875C4.594 4.20903 4.83215 4.43355 5.12526 4.43355H17.4952ZM5.80745 16.3322C5.03805 16.3322 4.4152 16.9683 4.4152 17.7541C4.4152 18.5306 5.03805 19.1667 5.80745 19.1667C6.56769 19.1667 7.19054 18.5306 7.19054 17.7541C7.19054 16.9683 6.56769 16.3322 5.80745 16.3322ZM16.1119 16.3322C15.3425 16.3322 14.7197 16.9683 14.7197 17.7541C14.7197 18.5306 15.3425 19.1667 16.1119 19.1667C16.8722 19.1667 17.495 18.5306 17.495 17.7541C17.495 16.9683 16.8722 16.3322 16.1119 16.3322Z" fill="#130F26"/>
</svg>
