<svg width="32" height="32" viewBox="0 0 32 32" fill="none" xmlns="http://www.w3.org/2000/svg">
<path d="M29.3333 20C29.3333 25.16 25.16 29.3333 20 29.3333L21.4 27" stroke="#212121" stroke-width="1.5" stroke-linecap="round" stroke-linejoin="round"/>
<path d="M2.66669 12.0003C2.66669 6.84033 6.84002 2.66699 12 2.66699L10.6 5.00033" stroke="#212121" stroke-width="1.5" stroke-linecap="round" stroke-linejoin="round"/>
<path d="M18.2667 5.93359L23.5733 9.00024L28.8267 5.94694" stroke="#212121" stroke-width="1.5" stroke-linecap="round" stroke-linejoin="round"/>
<path d="M23.5733 14.4273V8.9873" stroke="#212121" stroke-width="1.5" stroke-linecap="round" stroke-linejoin="round"/>
<path d="M22.32 2.94699L19.12 4.72027C18.4 5.12027 17.8 6.13359 17.8 6.96026V10.347C17.8 11.1736 18.3866 12.187 19.12 12.587L22.32 14.3603C23 14.747 24.12 14.747 24.8133 14.3603L28.0133 12.587C28.7333 12.187 29.3333 11.1736 29.3333 10.347V6.96026C29.3333 6.13359 28.7466 5.12027 28.0133 4.72027L24.8133 2.94699C24.1333 2.57366 23.0133 2.57366 22.32 2.94699Z" stroke="#212121" stroke-width="1.5" stroke-linecap="round" stroke-linejoin="round"/>
<path d="M3.13336 20.5996L8.4267 23.6663L13.6934 20.613" stroke="#212121" stroke-width="1.5" stroke-linecap="round" stroke-linejoin="round"/>
<path d="M8.4267 29.0933V23.6533" stroke="#212121" stroke-width="1.5" stroke-linecap="round" stroke-linejoin="round"/>
<path d="M7.18669 17.613L3.98669 19.3863C3.26669 19.7863 2.66669 20.7996 2.66669 21.6263V25.013C2.66669 25.8397 3.25336 26.853 3.98669 27.253L7.18669 29.0263C7.86669 29.413 8.98668 29.413 9.68001 29.0263L12.88 27.253C13.6 26.853 14.2 25.8397 14.2 25.013V21.6263C14.2 20.7996 13.6134 19.7863 12.88 19.3863L9.68001 17.613C8.98668 17.2397 7.86669 17.2397 7.18669 17.613Z" stroke="#212121" stroke-width="1.5" stroke-linecap="round" stroke-linejoin="round"/>
</svg>
