<svg width="20" height="19" viewBox="0 0 20 19" fill="none" xmlns="http://www.w3.org/2000/svg">
<path d="M1.52092 0.979065L3.42758 1.30906L4.31034 11.826C4.38092 12.6849 5.09867 13.344 5.96034 13.3412H15.9603C16.7825 13.3431 17.4801 12.7381 17.5965 11.9241L18.4664 5.91257C18.5636 5.24065 18.097 4.61732 17.426 4.52015C17.3673 4.5119 3.73375 4.50732 3.73375 4.50732" stroke="#9E9E9E" stroke-width="1.375" stroke-linecap="round" stroke-linejoin="round"/>
<path d="M11.948 7.89522H14.4899" stroke="#9E9E9E" stroke-width="1.375" stroke-linecap="round" stroke-linejoin="round"/>
<path fill-rule="evenodd" clip-rule="evenodd" d="M5.5582 16.5189C5.83412 16.5189 6.05687 16.7426 6.05687 17.0176C6.05687 17.2935 5.83412 17.5172 5.5582 17.5172C5.28228 17.5172 5.05953 17.2935 5.05953 17.0176C5.05953 16.7426 5.28228 16.5189 5.5582 16.5189Z" fill="#9E9E9E" stroke="#9E9E9E" stroke-width="1.375" stroke-linecap="round" stroke-linejoin="round"/>
<path fill-rule="evenodd" clip-rule="evenodd" d="M15.8985 16.5189C16.1744 16.5189 16.3981 16.7426 16.3981 17.0176C16.3981 17.2935 16.1744 17.5172 15.8985 17.5172C15.6226 17.5172 15.3998 17.2935 15.3998 17.0176C15.3998 16.7426 15.6226 16.5189 15.8985 16.5189Z" fill="#9E9E9E" stroke="#9E9E9E" stroke-width="1.375" stroke-linecap="round" stroke-linejoin="round"/>
</svg>
