<svg width="16" height="16" viewBox="0 0 16 16" fill="none" xmlns="http://www.w3.org/2000/svg">
<path d="M16 8C16 12.4183 12.4183 16 8 16C5.67086 16 3.5742 15.0047 2.11233 13.4162C1.72833 12.9992 1.38841 12.5411 1.0991 12.0496C0.400653 10.8617 0 9.47755 0 8C0 3.58171 3.58171 0 8 0C9.47788 0 10.862 0.400653 12.0496 1.09943C12.5411 1.38841 12.9989 1.72833 13.4158 2.11265C15.0044 3.57388 16 5.67086 16 8Z" fill="#F0CD00"/>
<path d="M16.0001 7.99982C16.0001 12.3185 12.5784 15.8379 8.29791 15.9943C4.01742 15.8379 0.595703 12.3185 0.595703 7.99982C0.595703 3.68113 4.01742 0.161779 8.29791 0.00537109C12.5784 0.161779 16.0001 3.68113 16.0001 7.99982Z" fill="#FFDE50"/>
<path d="M13.4159 2.11283L2.11235 13.4163C1.72835 12.9994 1.38843 12.5412 1.09912 12.0498L12.0497 1.09961C12.5411 1.38859 12.9989 1.72851 13.4159 2.11283Z" fill="#FFEA94"/>
<path d="M15.448 5.07511L5.07479 15.4483C4.34042 15.1597 3.65895 14.7656 3.04932 14.2846L14.2846 3.04932C14.7656 3.65895 15.1597 4.34042 15.448 5.07511Z" fill="#FFEA94"/>
<path d="M14.2167 8.00018C14.2167 11.4333 11.4333 14.2167 8.00018 14.2167C6.80443 14.2167 5.68769 13.879 4.73977 13.2939C4.32671 13.0392 3.94598 12.7372 3.60443 12.3956C3.35332 12.1448 3.12345 11.8722 2.91806 11.5812C2.63528 11.1806 2.39855 10.745 2.21602 10.2823C1.94565 9.59822 1.79349 8.85438 1.78434 8.07659C1.78369 8.05112 1.78369 8.02565 1.78369 8.00018C1.78369 4.56704 4.56671 1.78369 8.00018 1.78369C8.02565 1.78369 8.05145 1.78369 8.07692 1.78434C8.85471 1.79349 9.59822 1.94598 10.2823 2.21602C10.745 2.39888 11.1806 2.63528 11.5812 2.91806C11.8722 3.12377 12.1445 3.35332 12.3956 3.60443C12.7372 3.94565 13.0392 4.32671 13.2939 4.73977C13.879 5.68769 14.2167 6.80443 14.2167 8.00018Z" fill="#FAA300"/>
<path d="M12.3956 3.60443L3.60443 12.3956C3.35332 12.1448 3.12345 11.8722 2.91806 11.5812C2.63528 11.1806 2.39855 10.745 2.21602 10.2823C1.94565 9.59822 1.79349 8.85439 1.78434 8.07659C1.78369 8.05112 1.78369 8.02565 1.78369 8.00018C1.78369 4.56704 4.56671 1.78369 8.00018 1.78369C8.02565 1.78369 8.05145 1.78369 8.07692 1.78434C8.85471 1.79349 9.59822 1.94598 10.2823 2.21602C10.745 2.39888 11.1806 2.63528 11.5812 2.91806C11.8722 3.12377 12.1445 3.35332 12.3956 3.60443Z" fill="#FFBD00"/>
<path d="M14.2164 8.00018C14.2164 11.4333 11.4331 14.2167 7.99995 14.2167C7.88207 14.2167 7.76517 14.2134 7.64893 14.2069C10.9188 14.025 13.5141 11.3154 13.5141 8.00018C13.5141 4.68492 10.9188 1.97536 7.64893 1.79349C7.76517 1.78696 7.88207 1.78369 7.99995 1.78369C11.4331 1.78369 14.2164 4.56704 14.2164 8.00018Z" fill="#F68E00"/>
<path d="M7.79502 7.52258V5.00499C8.18738 5.22145 8.45383 5.63921 8.45383 6.11813C8.45383 6.45596 8.72769 6.72982 9.06552 6.72982C9.40335 6.72982 9.67721 6.45596 9.67721 6.11813C9.67721 4.95402 8.87535 3.97384 7.79502 3.7004V3.20251C7.79502 2.86468 7.52116 2.59082 7.18333 2.59082C6.8455 2.59082 6.57164 2.86468 6.57164 3.20251V3.70037C5.49131 3.97384 4.68945 4.95399 4.68945 6.1181C4.68945 6.81319 4.8936 7.35523 5.31355 7.77518C5.61974 8.08137 6.02647 8.30795 6.57164 8.47405V10.9956C6.17928 10.7791 5.91283 10.3614 5.91283 9.88248C5.91283 9.54465 5.63897 9.27079 5.30114 9.27079C4.96331 9.27079 4.68945 9.54465 4.68945 9.88248C4.68945 11.0466 5.49131 12.0267 6.57164 12.3002V12.7981C6.57164 13.1359 6.8455 13.4098 7.18333 13.4098C7.52116 13.4098 7.79502 13.1359 7.79502 12.7981V12.3002C8.87535 12.0267 9.67721 11.0466 9.67721 9.88248C9.67721 9.19702 9.46431 8.6366 9.04446 8.21675C8.73931 7.91157 8.32753 7.6828 7.79502 7.52258ZM6.17863 6.91013C6.05487 6.78641 5.91287 6.58455 5.91287 6.1181C5.91287 5.63918 6.17931 5.22145 6.57167 5.00496V7.17038C6.40668 7.09397 6.27607 7.0076 6.17863 6.91013ZM7.79502 10.9956V8.82347C8.32664 9.07105 8.45383 9.42524 8.45383 9.88248C8.45383 10.3614 8.18738 10.7791 7.79502 10.9956Z" fill="#F68E00"/>
<path d="M8.61192 7.52258V5.00499C9.00428 5.22145 9.27073 5.63921 9.27073 6.11813C9.27073 6.45596 9.54459 6.72982 9.88242 6.72982C10.2203 6.72982 10.4941 6.45596 10.4941 6.11813C10.4941 4.95402 9.69225 3.97384 8.61192 3.7004V3.20251C8.61192 2.86468 8.33806 2.59082 8.00023 2.59082C7.6624 2.59082 7.38854 2.86468 7.38854 3.20251V3.70037C6.30821 3.97384 5.50635 4.95399 5.50635 6.1181C5.50635 6.81319 5.7105 7.35523 6.13045 7.77518C6.43664 8.08137 6.84336 8.30795 7.38854 8.47405V10.9956C6.99618 10.7791 6.72973 10.3614 6.72973 9.88248C6.72973 9.54465 6.45587 9.27079 6.11804 9.27079C5.78021 9.27079 5.50635 9.54465 5.50635 9.88248C5.50635 11.0466 6.30821 12.0267 7.38854 12.3002V12.7981C7.38854 13.1359 7.6624 13.4098 8.00023 13.4098C8.33806 13.4098 8.61192 13.1359 8.61192 12.7981V12.3002C9.69225 12.0267 10.4941 11.0466 10.4941 9.88248C10.4941 9.19702 10.2812 8.6366 9.86136 8.21675C9.55622 7.91157 9.1444 7.6828 8.61192 7.52258ZM6.99549 6.91013C6.87174 6.78641 6.72973 6.58455 6.72973 6.1181C6.72973 5.63918 6.99618 5.22145 7.38854 5.00496V7.17038C7.22358 7.09397 7.09296 7.0076 6.99549 6.91013ZM8.61192 10.9956V8.82347C9.14355 9.07105 9.27073 9.42524 9.27073 9.88248C9.2707 10.3614 9.00428 10.7791 8.61192 10.9956Z" fill="#FFEA94"/>
</svg>
