<svg width="12" height="12" viewBox="0 0 12 12" fill="none" xmlns="http://www.w3.org/2000/svg">
<path fill-rule="evenodd" clip-rule="evenodd" d="M10.3754 10.9697H6.7489C6.5419 10.9697 6.3739 10.8017 6.3739 10.5947C6.3739 10.3877 6.5419 10.2197 6.7489 10.2197H10.3754C10.5824 10.2197 10.7504 10.3877 10.7504 10.5947C10.7504 10.8017 10.5824 10.9697 10.3754 10.9697Z" fill="white"/>
<mask id="mask0_735:12783" style="mask-type:alpha" maskUnits="userSpaceOnUse" x="1" y="1" width="9" height="10">
<path fill-rule="evenodd" clip-rule="evenodd" d="M1.00018 1.5H9.59048V10.9698H1.00018V1.5Z" fill="white"/>
</mask>
<g mask="url(#mask0_735:12783)">
<path fill-rule="evenodd" clip-rule="evenodd" d="M6.55532 2.50829L1.84782 8.39579C1.76232 8.50279 1.73082 8.64079 1.76232 8.77329L2.10282 10.2158L3.62232 10.1968C3.76682 10.1953 3.90032 10.1308 3.98882 10.0208C5.59732 8.00829 8.66382 4.17129 8.75082 4.05879C8.83282 3.92579 8.86482 3.73779 8.82182 3.55679C8.77782 3.37129 8.66232 3.21379 8.49582 3.11329C8.46032 3.08879 7.61782 2.43479 7.59182 2.41429C7.27482 2.16029 6.81232 2.20429 6.55532 2.50829ZM1.80682 10.9698C1.63332 10.9698 1.48232 10.8508 1.44182 10.6813L1.03232 8.94582C0.94782 8.58632 1.03182 8.21532 1.26232 7.92732L5.97232 2.03632C5.97432 2.03432 5.97582 2.03182 5.97782 2.02982C6.49432 1.41232 7.42832 1.32132 8.05832 1.82682C8.08332 1.84632 8.91982 2.49632 8.91982 2.49632C9.22382 2.67732 9.46132 3.00082 9.55132 3.38382C9.64082 3.76282 9.57582 4.15382 9.36732 4.48432C9.35182 4.50882 9.33832 4.52982 4.57432 10.4898C4.34482 10.7758 4.00082 10.9423 3.63132 10.9468L1.81182 10.9698H1.80682Z" fill="white"/>
</g>
<path fill-rule="evenodd" clip-rule="evenodd" d="M8.11171 5.84268C8.03171 5.84268 7.95171 5.81718 7.88321 5.76518L5.15721 3.67118C4.99321 3.54518 4.96221 3.31018 5.08821 3.14518C5.21471 2.98118 5.44971 2.95068 5.61421 3.07668L8.34071 5.17018C8.50471 5.29618 8.53571 5.53168 8.40921 5.69618C8.33571 5.79218 8.22421 5.84268 8.11171 5.84268Z" fill="white"/>
</svg>
