<svg width="16" height="16" viewBox="0 0 16 16" fill="none" xmlns="http://www.w3.org/2000/svg">
<mask id="mask0_1025:19630" style="mask-type:alpha" maskUnits="userSpaceOnUse" x="1" y="1" width="14" height="14">
<path fill-rule="evenodd" clip-rule="evenodd" d="M1.33359 1.3335H14.3333V14.334H1.33359V1.3335Z" fill="white"/>
</mask>
<g mask="url(#mask0_1025:19630)">
<path fill-rule="evenodd" clip-rule="evenodd" d="M5.84892 7.73283C5.86092 7.7435 5.87225 7.7535 5.88359 7.7655C6.60292 8.50283 6.99959 9.4795 6.99959 10.5162V13.1722L8.49025 12.3602C8.60759 12.2962 8.68025 12.1708 8.68025 12.0328V10.5082C8.68025 9.4755 9.07292 8.50216 9.78559 7.76883L13.0103 4.33883C13.2189 4.11683 13.3336 3.8255 13.3336 3.51816V2.89416C13.3336 2.58483 13.0896 2.3335 12.7909 2.3335H2.87692C2.57759 2.3335 2.33359 2.58483 2.33359 2.89416V3.51816C2.33359 3.8255 2.44825 4.11683 2.65692 4.33816L5.84892 7.73283ZM6.76425 14.3342C6.62959 14.3342 6.49625 14.2982 6.37492 14.2262C6.14025 14.0862 5.99959 13.8388 5.99959 13.5642V10.5162C5.99959 9.7595 5.71759 9.04683 5.20359 8.50083C5.18825 8.48816 5.17292 8.47416 5.15959 8.4595L1.92892 5.02416C1.54492 4.61616 1.33359 4.08083 1.33359 3.51816V2.89416C1.33359 2.0335 2.02625 1.3335 2.87692 1.3335H12.7909C13.6409 1.3335 14.3336 2.0335 14.3336 2.89416V3.51816C14.3336 4.08016 14.1223 4.61483 13.7396 5.0235L10.5083 8.4595C9.97292 9.0115 9.68025 9.7375 9.68025 10.5082V12.0328C9.68025 12.5368 9.40759 12.9982 8.96892 13.2382L7.12825 14.2408C7.01359 14.3028 6.88892 14.3342 6.76425 14.3342Z" fill="black"/>
</g>
</svg>
