<svg width="159" height="159" viewBox="0 0 159 159" fill="none" xmlns="http://www.w3.org/2000/svg">
<path d="M159 0H0V159H159V0Z" fill="#D10000"/>
<path d="M79.5141 11.219C41.8185 11.219 11.2189 41.8186 11.2189 79.5141C11.2189 117.21 41.7905 147.781 79.5141 147.781C117.21 147.781 147.781 117.21 147.781 79.5141C147.781 41.8186 117.21 11.219 79.5141 11.219ZM79.5141 144.556C43.5855 144.556 14.4724 115.415 14.4724 79.5141C14.4724 43.6136 43.5855 14.5005 79.5141 14.5005C115.415 14.5005 144.556 43.6136 144.556 79.5141C144.556 115.415 115.415 144.556 79.5141 144.556Z" fill="white"/>
<path fill-rule="evenodd" clip-rule="evenodd" d="M35.7042 105.486C52.2521 107 78.28 108.711 95.6693 90.2843C110.226 74.8302 124.278 60.8066 135.945 61.4236C126.718 57.8055 113.199 71.3804 94.2389 89.1343C77.6629 104.644 56.5994 106.748 35.7042 105.486Z" fill="white"/>
<path fill-rule="evenodd" clip-rule="evenodd" d="M31.1045 54.3277C44.2306 54.3277 57.3006 54.3277 70.4828 54.3277C67.3696 63.1346 63.6954 73.6803 60.6102 82.4872C69.5012 82.7116 78.1117 74.1572 87.3673 63.8077C99.1471 50.6535 114.854 50.1487 133 59.4043C119.818 61.4517 108.15 71.2122 98.3899 82.4872C83.8053 99.3997 61.3114 104.701 34.386 103.102C37.7236 93.5659 41.0332 84.0578 44.3428 74.5498C37.4992 74.5218 30.5716 74.4376 23.7 74.3815C25.9718 68.2672 28.2717 62.181 30.5435 56.0386L31.1045 54.3277Z" fill="white"/>
</svg>
