<svg width="20" height="20" viewBox="0 0 20 20" fill="none" xmlns="http://www.w3.org/2000/svg">
<path d="M16.1145 12.2227C15.4851 12.2232 14.8653 12.377 14.3086 12.6709C13.7519 12.9647 13.275 13.3898 12.919 13.9094L7.50101 11.4602C7.88583 10.5299 7.88732 9.48495 7.50517 8.55354L12.9156 6.09187C13.4432 6.85584 14.2269 7.40518 15.1244 7.64024C16.0219 7.87531 16.9739 7.78054 17.8076 7.37312C18.6413 6.9657 19.3016 6.27262 19.6686 5.4196C20.0356 4.56657 20.0851 3.6101 19.808 2.72368C19.531 1.83727 18.9458 1.07962 18.1586 0.588169C17.3713 0.0967179 16.4342 -0.0959833 15.5173 0.0450196C14.6003 0.186023 13.7642 0.65139 13.1605 1.35671C12.5569 2.06203 12.2258 2.96058 12.2273 3.88937C12.2308 4.10921 12.2531 4.32834 12.2938 4.54437L6.54211 7.16104C5.9897 6.64289 5.29813 6.29757 4.55237 6.16751C3.80662 6.03745 3.03916 6.1283 2.34427 6.42892C1.64939 6.72954 1.05734 7.22682 0.640881 7.85968C0.224418 8.49253 0.0016726 9.23339 9.38271e-06 9.99125C-0.00165383 10.7491 0.217838 11.4909 0.631519 12.1256C1.0452 12.7603 1.63505 13.2602 2.32861 13.5639C3.02217 13.8675 3.78923 13.9618 4.53555 13.835C5.28187 13.7082 5.97494 13.3659 6.52963 12.8502L12.2963 15.4569C12.2563 15.6727 12.2343 15.8915 12.2306 16.111C12.2304 16.8803 12.4581 17.6324 12.8849 18.2721C13.3117 18.9118 13.9184 19.4104 14.6283 19.7048C15.3382 19.9993 16.1193 20.0764 16.873 19.9264C17.6266 19.7763 18.3189 19.4059 18.8622 18.8619C19.4055 18.318 19.7755 17.6249 19.9254 16.8704C20.0753 16.1159 19.9983 15.3339 19.7041 14.6232C19.41 13.9125 18.912 13.3051 18.273 12.8778C17.634 12.4505 16.8829 12.2225 16.1145 12.2227ZM16.1145 1.66687C16.5536 1.66671 16.9828 1.79692 17.348 2.04103C17.7132 2.28514 17.9979 2.63219 18.166 3.03828C18.3342 3.44438 18.3783 3.89127 18.2927 4.32245C18.2071 4.75363 17.9958 5.14972 17.6853 5.46062C17.3749 5.77153 16.9793 5.98328 16.5487 6.06911C16.118 6.15493 15.6716 6.11097 15.2659 5.94278C14.8603 5.77458 14.5135 5.48972 14.2695 5.12422C14.0256 4.75871 13.8953 4.32898 13.8953 3.88937C13.8958 3.30021 14.1297 2.73529 14.5457 2.31861C14.9618 1.90193 15.526 1.66754 16.1145 1.66687ZM3.9068 12.2227C3.4677 12.2229 3.03842 12.0927 2.67324 11.8486C2.30806 11.6044 2.02339 11.2574 1.85524 10.8513C1.68709 10.4452 1.64301 9.99831 1.72857 9.56713C1.81414 9.13595 2.0255 8.73986 2.33593 8.42896C2.64637 8.11805 3.04192 7.9063 3.47257 7.82047C3.90322 7.73465 4.34963 7.77861 4.75532 7.94681C5.16101 8.115 5.50777 8.39986 5.75174 8.76537C5.9957 9.13087 6.12592 9.5606 6.12592 10.0002C6.12526 10.5893 5.89128 11.1541 5.47528 11.5707C5.05928 11.9874 4.49522 12.2218 3.9068 12.2227ZM16.1145 18.3335C15.6754 18.3335 15.2462 18.2032 14.8811 17.959C14.516 17.7148 14.2315 17.3677 14.0635 16.9616C13.8955 16.5554 13.8515 16.1086 13.9372 15.6775C14.0228 15.2463 14.2342 14.8503 14.5447 14.5395C14.8552 14.2287 15.2507 14.017 15.6814 13.9312C16.112 13.8455 16.5584 13.8895 16.964 14.0577C17.3696 14.2259 17.7164 14.5108 17.9603 14.8763C18.2042 15.2418 18.3344 15.6715 18.3344 16.111C18.334 16.7003 18.0999 17.2654 17.6837 17.6821C17.2675 18.0988 16.7031 18.3331 16.1145 18.3335Z" fill="#A8A8A8"/>
</svg>
