<svg width="18" height="18" viewBox="0 0 18 18" fill="none" xmlns="http://www.w3.org/2000/svg">
<mask id="mask0" style="mask-type:alpha" maskUnits="userSpaceOnUse" x="0" y="0" width="17" height="17">
<path fill-rule="evenodd" clip-rule="evenodd" d="M0.666656 0.666626H16.8973V16.8975H0.666656V0.666626Z" fill="white"/>
</mask>
<g mask="url(#mask0)">
<path fill-rule="evenodd" clip-rule="evenodd" d="M8.78232 1.91667C4.99649 1.91667 1.91649 4.99583 1.91649 8.78167C1.91649 12.5675 4.99649 15.6475 8.78232 15.6475C12.5673 15.6475 15.6473 12.5675 15.6473 8.78167C15.6473 4.99583 12.5673 1.91667 8.78232 1.91667ZM8.78228 16.8975C4.30728 16.8975 0.666443 13.2566 0.666443 8.78163C0.666443 4.30663 4.30728 0.666626 8.78228 0.666626C13.2573 0.666626 16.8973 4.30663 16.8973 8.78163C16.8973 13.2566 13.2573 16.8975 8.78228 16.8975Z" fill="#9E9E9E"/>
</g>
<mask id="mask1" style="mask-type:alpha" maskUnits="userSpaceOnUse" x="13" y="13" width="5" height="5">
<path fill-rule="evenodd" clip-rule="evenodd" d="M13.3666 13.7557H17.5533V17.9347H13.3666V13.7557Z" fill="white"/>
</mask>
<g mask="url(#mask1)">
<path fill-rule="evenodd" clip-rule="evenodd" d="M16.9285 17.9347C16.7693 17.9347 16.6093 17.8739 16.4868 17.7522L13.5502 14.8239C13.306 14.5797 13.3052 14.1839 13.5493 13.9397C13.7927 13.6939 14.1885 13.6955 14.4335 13.938L17.3702 16.8672C17.6143 17.1114 17.6152 17.5064 17.371 17.7505C17.2493 17.8739 17.0885 17.9347 16.9285 17.9347Z" fill="#9E9E9E"/>
</g>
</svg>
