<svg width="32" height="32" viewBox="0 0 32 32" fill="none" xmlns="http://www.w3.org/2000/svg">
<path d="M17.3333 19.6663H2.66666C2.11999 19.6663 1.66666 19.213 1.66666 18.6663V10.1597C1.66666 9.733 1.93331 9.35964 2.31998 9.21297C2.71998 9.0663 3.16 9.18635 3.42667 9.50635C4.22667 10.453 5.38664 10.9863 6.65331 10.9863C6.69331 10.9863 6.72 10.9863 6.76 10.9863C7.82667 10.9597 8.8133 10.5597 9.55997 9.85303C9.90663 9.55969 10.1866 9.213 10.4 8.82633C10.8133 8.11967 11.0133 7.34632 11 6.55965C10.9733 5.33298 10.44 4.21299 9.53336 3.39966C9.21336 3.11966 9.10666 2.67964 9.25333 2.29297C9.39999 1.9063 9.77334 1.63965 10.1867 1.63965H20C20.5467 1.63965 21 2.09298 21 2.63965V15.973C21 18.0263 19.36 19.6663 17.3333 19.6663ZM3.66666 17.6663H17.3333C18.2533 17.6663 19 16.9197 19 15.9997V3.66634H12.2533C12.72 4.53301 12.9733 5.50636 13 6.51969C13.0267 7.67969 12.7333 8.82633 12.1466 9.82633C11.8266 10.3997 11.3866 10.9464 10.9066 11.3464C9.83998 12.3597 8.3733 12.9597 6.8133 12.9997C5.70664 13.0397 4.61334 12.7597 3.68 12.253V17.6663H3.66666Z" fill="#212121"/>
<path d="M25.3333 27.667H24C23.4533 27.667 23 27.2137 23 26.667C23 25.747 22.2533 25.0003 21.3333 25.0003C20.4133 25.0003 19.6667 25.747 19.6667 26.667C19.6667 27.2137 19.2133 27.667 18.6667 27.667H13.3333C12.7867 27.667 12.3333 27.2137 12.3333 26.667C12.3333 25.747 11.5867 25.0003 10.6667 25.0003C9.74666 25.0003 8.99999 25.747 8.99999 26.667C8.99999 27.2137 8.54666 27.667 7.99999 27.667H6.66666C3.90666 27.667 1.66666 25.427 1.66666 22.667V18.667C1.66666 18.1203 2.11999 17.667 2.66666 17.667H17.3333C18.2533 17.667 19 16.9203 19 16.0003V6.66699C19 6.12033 19.4533 5.66699 20 5.66699H22.4534C23.7734 5.66699 24.9866 6.37368 25.64 7.52035L27.92 11.507C28.0933 11.8137 28.0933 12.2003 27.92 12.507C27.7467 12.8137 27.4133 13.0003 27.0533 13.0003H25.3333C25.1467 13.0003 25 13.147 25 13.3337V17.3337C25 17.5203 25.1467 17.667 25.3333 17.667H29.3333C29.88 17.667 30.3333 18.1203 30.3333 18.667V22.667C30.3333 25.427 28.0933 27.667 25.3333 27.667ZM24.8667 25.667H25.3333C26.9867 25.667 28.3333 24.3203 28.3333 22.667V19.667H25.3333C24.0533 19.667 23 18.6137 23 17.3337V13.3337C23 12.0537 24.04 11.0003 25.3333 11.0003L23.9066 8.507C23.6133 7.987 23.0534 7.66699 22.4534 7.66699H21V16.0003C21 18.027 19.36 19.667 17.3333 19.667H3.66666V22.667C3.66666 24.3203 5.01332 25.667 6.66666 25.667H7.13329C7.57329 24.1337 8.98666 23.0003 10.6667 23.0003C12.3467 23.0003 13.76 24.1337 14.2 25.667H17.8133C18.2533 24.1337 19.6667 23.0003 21.3467 23.0003C23.0267 23.0003 24.4267 24.1337 24.8667 25.667Z" fill="#212121"/>
<path d="M10.6667 30.3333C8.64 30.3333 7 28.6933 7 26.6667C7 24.64 8.64 23 10.6667 23C12.6933 23 14.3333 24.64 14.3333 26.6667C14.3333 28.6933 12.6933 30.3333 10.6667 30.3333ZM10.6667 25C9.74667 25 9 25.7467 9 26.6667C9 27.5867 9.74667 28.3333 10.6667 28.3333C11.5867 28.3333 12.3333 27.5867 12.3333 26.6667C12.3333 25.7467 11.5867 25 10.6667 25Z" fill="#212121"/>
<path d="M21.3333 30.3333C19.3067 30.3333 17.6667 28.6933 17.6667 26.6667C17.6667 24.64 19.3067 23 21.3333 23C23.36 23 25 24.64 25 26.6667C25 28.6933 23.36 30.3333 21.3333 30.3333ZM21.3333 25C20.4133 25 19.6667 25.7467 19.6667 26.6667C19.6667 27.5867 20.4133 28.3333 21.3333 28.3333C22.2533 28.3333 23 27.5867 23 26.6667C23 25.7467 22.2533 25 21.3333 25Z" fill="#212121"/>
<path d="M29.3333 19.6667H25.3333C24.0533 19.6667 23 18.6133 23 17.3333V13.3333C23 12.0533 24.0533 11 25.3333 11H27.0533C27.4133 11 27.7467 11.1867 27.92 11.5067L30.2 15.5067C30.28 15.6533 30.3333 15.8267 30.3333 16V18.6667C30.3333 19.2133 29.88 19.6667 29.3333 19.6667ZM25.3333 13C25.1467 13 25 13.1467 25 13.3333V17.3333C25 17.52 25.1467 17.6667 25.3333 17.6667H28.3333V16.2667L26.4666 13H25.3333Z" fill="#212121"/>
<path d="M6.66668 12.9997C4.45334 12.9997 2.37335 11.8263 1.25335 9.91968C0.653347 8.95968 0.333344 7.82634 0.333344 6.66634C0.333344 4.71967 1.20005 2.91965 2.70672 1.71965C3.82672 0.826312 5.24001 0.333008 6.66668 0.333008C10.16 0.333008 13 3.17301 13 6.66634C13 7.82634 12.68 8.95969 12.08 9.93302C11.7467 10.493 11.32 10.9997 10.8133 11.4264C9.70666 12.4397 8.22668 12.9997 6.66668 12.9997ZM6.66668 2.33301C5.68001 2.33301 4.74664 2.6663 3.95997 3.29297C2.9333 4.1063 2.33334 5.34634 2.33334 6.66634C2.33334 7.45301 2.54664 8.22632 2.95997 8.89299C3.7333 10.1997 5.16001 10.9997 6.66668 10.9997C7.72001 10.9997 8.73335 10.613 9.50668 9.91968C9.85335 9.62634 10.1467 9.27966 10.36 8.90633C10.7867 8.22633 11 7.45301 11 6.66634C11 4.27967 9.05334 2.33301 6.66668 2.33301Z" fill="#212121"/>
<path d="M8.09322 9.0531C7.83989 9.0531 7.58652 8.95981 7.38652 8.75981L4.5732 5.94649C4.18654 5.55983 4.18654 4.91983 4.5732 4.53316C4.95987 4.1465 5.59987 4.1465 5.98653 4.53316L8.79985 7.34648C9.18651 7.73314 9.18651 8.37314 8.79985 8.75981C8.59985 8.95981 8.34656 9.0531 8.09322 9.0531Z" fill="#212121"/>
<path d="M5.24012 9.09322C4.98679 9.09322 4.7335 8.99985 4.5335 8.79985C4.14683 8.41318 4.14683 7.77318 4.5335 7.38652L7.34681 4.5732C7.73348 4.18654 8.37348 4.18654 8.76014 4.5732C9.14681 4.95987 9.14681 5.59987 8.76014 5.98653L5.94683 8.79985C5.74683 8.99985 5.49346 9.09322 5.24012 9.09322Z" fill="#212121"/>
</svg>
