<svg width="28" height="28" viewBox="0 0 28 28" fill="none" xmlns="http://www.w3.org/2000/svg">
<path d="M25.386 10.7539L22.5641 13.5757L22.0216 14.1182L10.7538 25.3861C10.5487 25.5911 10.2705 25.7063 9.98053 25.7063C9.6905 25.7063 9.41235 25.5911 9.20724 25.3861L7.23193 23.4107C7.40713 23.2376 7.54637 23.0315 7.64164 22.8044C7.73692 22.5773 7.78634 22.3335 7.78707 22.0872C7.7878 21.8409 7.73982 21.5969 7.6459 21.3692C7.55198 21.1414 7.41396 20.9346 7.23979 20.7604C7.06562 20.5862 6.85873 20.4482 6.63102 20.3543C6.40332 20.2604 6.15929 20.2124 5.91298 20.2131C5.66666 20.2138 5.42292 20.2633 5.19578 20.3585C4.96863 20.4538 4.76257 20.593 4.58943 20.7682L2.61412 18.7929C2.40907 18.5878 2.29388 18.3097 2.29388 18.0197C2.29388 17.7296 2.40907 17.4515 2.61412 17.2464L14.4244 5.43606L17.2463 2.61418C17.4514 2.40913 17.7296 2.29395 18.0196 2.29395C18.3096 2.29395 18.5878 2.40913 18.7929 2.61418L20.7682 4.58949C20.4212 4.94062 20.2272 5.4148 20.2287 5.90845C20.2302 6.4021 20.4269 6.87512 20.776 7.22418C21.1251 7.57325 21.5981 7.77 22.0917 7.77147C22.5854 7.77293 23.0596 7.57898 23.4107 7.23199L25.386 9.20731C25.591 9.41241 25.7062 9.69056 25.7062 9.98059C25.7062 10.2706 25.591 10.5488 25.386 10.7539Z" fill="#FFBDA6"/>
<path d="M6.51885 14.9646C6.48373 15.0004 6.44187 15.0289 6.39569 15.0484C6.34951 15.068 6.29992 15.0781 6.24979 15.0784C6.14787 15.0779 6.05032 15.037 5.97854 14.9646L5.43604 14.4243L5.97854 13.8818L6.51885 14.4243C6.55471 14.4596 6.58319 14.5016 6.60263 14.548C6.62208 14.5944 6.63209 14.6442 6.63209 14.6945C6.63209 14.7448 6.62208 14.7946 6.60263 14.841C6.58319 14.8873 6.55471 14.9294 6.51885 14.9646Z" fill="#FF4C4D"/>
<path d="M12.5673 20.4726L11.5611 19.4641C11.4894 19.3922 11.3921 19.3517 11.2906 19.3515C11.1891 19.3512 11.0916 19.3914 11.0197 19.463C10.9477 19.5347 10.9072 19.632 10.907 19.7335C10.9068 19.835 10.9469 19.9325 11.0186 20.0044L12.027 21.0129C12.0622 21.0497 12.1044 21.0791 12.1511 21.0994C12.1978 21.1196 12.248 21.1304 12.299 21.131C12.3499 21.1315 12.4004 21.1219 12.4475 21.1027C12.4947 21.0835 12.5375 21.0551 12.5735 21.0191C12.6095 20.9831 12.6379 20.9402 12.6572 20.8931C12.6764 20.8459 12.686 20.7954 12.6854 20.7445C12.6848 20.6936 12.6741 20.6433 12.6538 20.5966C12.6335 20.5499 12.6041 20.5077 12.5673 20.4726ZM10.5526 18.4557L9.5442 17.4473C9.47176 17.3778 9.37497 17.3394 9.27459 17.3404C9.17421 17.3415 9.07823 17.3818 9.00725 17.4528C8.93626 17.5238 8.89593 17.6198 8.89489 17.7201C8.89385 17.8205 8.93219 17.9173 9.00169 17.9898L10.0101 18.9982C10.0826 19.0677 10.1794 19.106 10.2797 19.105C10.3801 19.104 10.4761 19.0636 10.5471 18.9926C10.6181 18.9217 10.6584 18.8257 10.6594 18.7253C10.6605 18.6249 10.6221 18.5281 10.5526 18.4557ZM8.53576 16.4388L7.52732 15.4326C7.49214 15.3958 7.44996 15.3663 7.40326 15.3461C7.35656 15.3258 7.30628 15.3151 7.25537 15.3145C7.20446 15.3139 7.15395 15.3235 7.10681 15.3427C7.05966 15.3619 7.01683 15.3904 6.98083 15.4264C6.94483 15.4624 6.91638 15.5052 6.89717 15.5524C6.87795 15.5995 6.86835 15.65 6.86892 15.7009C6.8695 15.7518 6.88024 15.8021 6.90052 15.8488C6.92079 15.8955 6.9502 15.9377 6.987 15.9729L7.99544 16.9813C8.06719 17.0528 8.16433 17.0929 8.2656 17.0929C8.36687 17.0929 8.46401 17.0528 8.53576 16.9813C8.60725 16.9091 8.64736 16.8117 8.64736 16.7101C8.64736 16.6085 8.60725 16.511 8.53576 16.4388Z" fill="#FF4C4D"/>
<path d="M14.1182 22.0212L13.5757 22.5637L13.0354 22.0212C12.9664 21.949 12.9284 21.8527 12.9295 21.7528C12.9307 21.653 12.9708 21.5575 13.0414 21.4869C13.112 21.4163 13.2075 21.3762 13.3073 21.375C13.4072 21.3739 13.5035 21.4119 13.5757 21.4809L14.1182 22.0212Z" fill="#FF4C4D"/>
<path d="M22.5641 13.5749L22.0216 14.1174L21.4813 13.5749C21.4123 13.5027 21.3743 13.4064 21.3754 13.3066C21.3765 13.2067 21.4167 13.1113 21.4873 13.0406C21.5579 12.97 21.6533 12.9299 21.7532 12.9287C21.853 12.9276 21.9494 12.9656 22.0216 13.0346L22.5641 13.5749Z" fill="#FF4C4D"/>
<path d="M21.0132 12.0263L20.0047 11.0178C19.9328 10.9462 19.8353 10.9061 19.7338 10.9063C19.6323 10.9065 19.535 10.947 19.4633 11.0189C19.3917 11.0909 19.3515 11.1883 19.3517 11.2899C19.3519 11.3914 19.3925 11.4887 19.4644 11.5603L20.4728 12.5666C20.508 12.6034 20.5502 12.6328 20.5969 12.6531C20.6436 12.6734 20.6939 12.6841 20.7448 12.6847C20.7957 12.6852 20.8462 12.6756 20.8934 12.6564C20.9405 12.6372 20.9833 12.6088 21.0193 12.5728C21.0553 12.5368 21.0838 12.4939 21.103 12.4468C21.1222 12.3996 21.1318 12.3491 21.1312 12.2982C21.1307 12.2473 21.1199 12.197 21.0996 12.1503C21.0794 12.1036 21.05 12.0615 21.0132 12.0263ZM18.9985 10.0094L17.99 9.00096C17.9176 8.93146 17.8208 8.89312 17.7204 8.89416C17.62 8.89519 17.5241 8.93553 17.4531 9.00651C17.3821 9.0775 17.3418 9.17347 17.3407 9.27386C17.3397 9.37424 17.378 9.47103 17.4475 9.54346L18.456 10.5519C18.4913 10.5887 18.5337 10.6182 18.5805 10.6384C18.6274 10.6587 18.6778 10.6694 18.7289 10.6699C18.7799 10.6705 18.8306 10.6608 18.8778 10.6415C18.9251 10.6222 18.968 10.5937 19.0041 10.5576C19.0402 10.5215 19.0688 10.4785 19.0881 10.4313C19.1074 10.384 19.117 10.3333 19.1165 10.2823C19.116 10.2312 19.1053 10.1808 19.085 10.134C19.0647 10.0871 19.0353 10.0447 18.9985 10.0094ZM16.9816 7.99471L15.9731 6.98627C15.938 6.94947 15.8958 6.92006 15.8491 6.89978C15.8024 6.87951 15.7521 6.86876 15.7012 6.86819C15.6503 6.86761 15.5998 6.87722 15.5526 6.89643C15.5055 6.91565 15.4627 6.94409 15.4267 6.98009C15.3907 7.0161 15.3622 7.05893 15.343 7.10607C15.3238 7.15322 15.3142 7.20373 15.3148 7.25464C15.3153 7.30555 15.3261 7.35583 15.3463 7.40253C15.3666 7.44923 15.396 7.49141 15.4328 7.52658L16.4391 8.53502C16.4746 8.57064 16.5167 8.59893 16.5631 8.61826C16.6095 8.6376 16.6593 8.6476 16.7096 8.6477C16.7598 8.6478 16.8096 8.638 16.8561 8.61885C16.9026 8.59971 16.9449 8.5716 16.9805 8.53612C17.0161 8.50064 17.0444 8.45849 17.0637 8.41209C17.0831 8.36568 17.0931 8.31591 17.0932 8.26564C17.0933 8.21537 17.0835 8.16556 17.0643 8.11908C17.0452 8.07259 17.0171 8.03033 16.9816 7.99471Z" fill="#FF4C4D"/>
<path d="M14.9647 6.52055C14.9291 6.55608 14.8868 6.58423 14.8402 6.60337C14.7937 6.62252 14.7438 6.63228 14.6935 6.63211C14.6433 6.63214 14.5936 6.62209 14.5474 6.60255C14.5012 6.58301 14.4593 6.55438 14.4244 6.51836L13.8819 5.97805L14.4244 5.43555L14.9647 5.97805C15.0006 6.01353 15.0291 6.05577 15.0485 6.10233C15.0679 6.14889 15.0779 6.19884 15.0779 6.2493C15.0779 6.29975 15.0679 6.34971 15.0485 6.39627C15.0291 6.44283 15.0006 6.48507 14.9647 6.52055Z" fill="#FF4C4D"/>
<path d="M12.797 11.9313L13.5783 12.3294C13.6994 12.3912 13.837 12.4129 13.9712 12.3917C14.1054 12.3704 14.2295 12.3072 14.3256 12.2111L14.9457 11.5909C15.0418 11.4948 15.1658 11.4316 15.3001 11.4103C15.4343 11.389 15.5718 11.4108 15.6929 11.4725C15.814 11.5342 15.9124 11.6326 15.9741 11.7537C16.0358 11.8748 16.0575 12.0124 16.0362 12.1466L15.8991 13.0128C15.8777 13.147 15.8995 13.2846 15.9612 13.4057C16.0229 13.5267 16.1214 13.6252 16.2425 13.6868L17.0239 14.0849C17.145 14.1466 17.2434 14.2451 17.3051 14.3662C17.3668 14.4873 17.3885 14.6248 17.3673 14.759C17.346 14.8933 17.2828 15.0173 17.1867 15.1134C17.0905 15.2095 16.9665 15.2727 16.8322 15.2939L15.9662 15.4311C15.832 15.4523 15.7079 15.5155 15.6119 15.6116C15.5158 15.7077 15.4526 15.8317 15.4314 15.9659L15.2942 16.832C15.273 16.9662 15.2098 17.0903 15.1137 17.1864C15.0176 17.2825 14.8935 17.3457 14.7593 17.367C14.6251 17.3883 14.4876 17.3665 14.3665 17.3048C14.2454 17.2431 14.1469 17.1447 14.0852 17.0236L13.6871 16.2422C13.6254 16.1211 13.527 16.0227 13.4059 15.961C13.2848 15.8993 13.1473 15.8775 13.0131 15.8988L12.1468 16.0359C12.0126 16.0573 11.8751 16.0355 11.754 15.9738C11.6329 15.9122 11.5344 15.8137 11.4727 15.6926C11.411 15.5715 11.3893 15.434 11.4106 15.2998C11.4318 15.1656 11.4951 15.0415 11.5912 14.9455L12.2114 14.3253C12.3075 14.2292 12.3707 14.1052 12.3919 13.9709C12.4132 13.8367 12.3914 13.6992 12.3297 13.5781L11.9309 12.7974C11.8688 12.6762 11.8467 12.5385 11.8678 12.404C11.889 12.2695 11.9522 12.1451 12.0485 12.0489C12.1448 11.9526 12.2691 11.8893 12.4036 11.8682C12.5381 11.8471 12.6758 11.8692 12.797 11.9313Z" fill="#D10000"/>
</svg>
