<svg width="28" height="28" viewBox="0 0 28 28" fill="none" xmlns="http://www.w3.org/2000/svg">
<path d="M1.3125 15.8691V18.3004C1.3125 18.421 1.35237 18.5382 1.42592 18.6338C1.49947 18.7295 1.60257 18.7981 1.71916 18.829L7.39178 20.3339C7.46648 19.9939 7.67318 19.6975 7.96641 19.5099C8.25964 19.3223 8.61538 19.2589 8.95538 19.3336C9.29537 19.4083 9.59177 19.615 9.77937 19.9082C9.96696 20.2014 10.0304 20.5572 9.9557 20.8972L23.9672 24.483C24.0371 24.5009 24.1097 24.5048 24.1811 24.4945C24.2524 24.4842 24.321 24.4599 24.3829 24.4229C24.4448 24.386 24.4988 24.3373 24.5418 24.2794C24.5848 24.2216 24.6159 24.1558 24.6334 24.0859L26.6875 15.8691H1.3125Z" fill="#0063F7"/>
<path d="M1.3125 18.0566H26.1406L26.6875 15.8691H1.3125V18.0566Z" fill="#004FC4"/>
<path d="M11.3003 3.61914C11.3701 3.81708 11.3914 4.02887 11.3624 4.23674C11.3335 4.44462 11.2551 4.64252 11.1338 4.81383C11.0126 4.98515 10.852 5.1249 10.6656 5.22134C10.4792 5.31779 10.2724 5.36812 10.0625 5.36812C9.85262 5.36812 9.64579 5.31779 9.45938 5.22134C9.27297 5.1249 9.11241 4.98515 8.99116 4.81383C8.86991 4.64252 8.79152 4.44462 8.76256 4.23674C8.73359 4.02887 8.7549 3.81708 8.8247 3.61914H1.85938C1.71433 3.61914 1.57523 3.67676 1.47268 3.77932C1.37012 3.88188 1.3125 4.02098 1.3125 4.16602V17.1816H8.75C8.75 16.8335 8.88828 16.4997 9.13442 16.2536C9.38056 16.0074 9.7144 15.8691 10.0625 15.8691C10.4106 15.8691 10.7444 16.0074 10.9906 16.2536C11.2367 16.4997 11.375 16.8335 11.375 17.1816H26.1406C26.2857 17.1816 26.4248 17.124 26.5273 17.0215C26.6299 16.9189 26.6875 16.7798 26.6875 16.6348V4.16602C26.6875 4.02098 26.6299 3.88188 26.5273 3.77932C26.4248 3.67676 26.2857 3.61914 26.1406 3.61914H11.3003Z" fill="#9DBFF9"/>
<path d="M9.625 5.36914H10.5V7.55663H9.625V5.36914Z" fill="#9DBFF9"/>
<path d="M9.625 8.43164H10.5V9.30664H9.625V8.43164Z" fill="#9DBFF9"/>
<path d="M9.625 10.1816H10.5V11.0566H9.625V10.1816Z" fill="#9DBFF9"/>
<path d="M9.625 11.9316H10.5V12.8066H9.625V11.9316Z" fill="#9DBFF9"/>
<path d="M9.625 13.6816H10.5V15.8692H9.625V13.6816Z" fill="#9DBFF9"/>
<path d="M26.1406 17.1817H18.8125L26.6875 10.1816V16.6348C26.6875 16.7798 26.6299 16.9189 26.5273 17.0215C26.4248 17.124 26.2857 17.1817 26.1406 17.1817Z" fill="#0063F7"/>
<path d="M12.6875 5.36914H23.8438C24.1338 5.36914 24.412 5.48437 24.6171 5.68949C24.8223 5.89461 24.9375 6.17281 24.9375 6.46289V7.55663H13.7812C13.4912 7.55663 13.213 7.4414 13.0079 7.23628C12.8027 7.03116 12.6875 6.75297 12.6875 6.46289V5.36914Z" fill="#0063F7"/>
<path d="M12.25 9.30664H16.1875V10.1816H12.25V9.30664Z" fill="#004FC4"/>
<path d="M17.0625 9.30664H24.9375V10.1816H17.0625V9.30664Z" fill="#004FC4"/>
<path d="M12.25 11.4941H18.8125V12.3691H12.25V11.4941Z" fill="#004FC4"/>
<path d="M19.6875 11.4941H22.3125V12.3691H19.6875V11.4941Z" fill="#004FC4"/>
<path d="M12.25 13.6816H13.125V15.8692H12.25V13.6816Z" fill="#9DBFF9"/>
<path d="M14 13.6816H14.875V15.8692H14V13.6816Z" fill="#9DBFF9"/>
<path d="M15.75 13.6816H16.625V15.8692H15.75V13.6816Z" fill="#9DBFF9"/>
<path d="M17.5 13.6816H18.375V15.8692H17.5V13.6816Z" fill="#9DBFF9"/>
<path d="M3.9375 7.55663C4.42075 7.55663 4.8125 7.16488 4.8125 6.68164C4.8125 6.19839 4.42075 5.80664 3.9375 5.80664C3.45425 5.80664 3.0625 6.19839 3.0625 6.68164C3.0625 7.16488 3.45425 7.55663 3.9375 7.55663Z" fill="#0063F7"/>
<path d="M7.4375 10.6191C7.92075 10.6191 8.3125 10.2274 8.3125 9.74414C8.3125 9.26089 7.92075 8.86914 7.4375 8.86914C6.95425 8.86914 6.5625 9.26089 6.5625 9.74414C6.5625 10.2274 6.95425 10.6191 7.4375 10.6191Z" fill="#0063F7"/>
<path d="M3.60626 9.88965L7.10436 5.95429L7.75799 6.53529L4.25989 10.4706L3.60626 9.88965Z" fill="#0063F7"/>
<path d="M7.4375 14.5566H8.75V15.4316H7.4375V14.5566Z" fill="#004FC4"/>
<path d="M2.625 14.5566H6.5625V15.4316H2.625V14.5566Z" fill="#004FC4"/>
<path d="M2.625 12.8066H3.5V13.6816H2.625V12.8066Z" fill="#004FC4"/>
<path d="M4.375 12.8066H8.75V13.6816H4.375V12.8066Z" fill="#004FC4"/>
<path d="M23.1875 14.9941H25.375V15.8691H23.1875V14.9941Z" fill="#9DBFF9"/>
</svg>
