<svg width="20" height="13" viewBox="0 0 20 13" fill="none" xmlns="http://www.w3.org/2000/svg">
<path d="M18.75 12.5H14.375V11.945C14.375 11.3219 13.9507 10.7431 13.3362 10.6419C12.5537 10.5138 11.875 11.1169 11.875 11.875V12.5H1.25C0.559387 12.5 0 11.9406 0 11.25V1.25C0 0.559387 0.559387 0 1.25 0H11.875V0.554962C11.875 1.17813 12.2993 1.7569 12.9138 1.85806C13.6963 1.98624 14.375 1.38306 14.375 0.625V0H18.75C19.4406 0 20 0.559387 20 1.25V11.25C20 11.9406 19.4406 12.5 18.75 12.5Z" fill="#0063F7"/>
<path d="M3.30762 8.30826L8.30762 3.30811L9.19156 4.19205L4.19141 9.1922L3.30762 8.30826Z" fill="white"/>
<path d="M3.75 3.75H5V5H3.75V3.75Z" fill="white"/>
<path d="M7.5 7.5H8.75V8.75H7.5V7.5Z" fill="white"/>
<path d="M12.5 4.375H13.75V5.625H12.5V4.375Z" fill="#9DBFF9"/>
<path d="M12.5 6.875H13.75V8.125H12.5V6.875Z" fill="#9DBFF9"/>
</svg>
