<svg width="24" height="24" viewBox="0 0 24 24" fill="none" xmlns="http://www.w3.org/2000/svg">
<circle cx="12" cy="12" r="12" fill="#D10000"/>
<path d="M16.0952 13.8526C15.5708 13.853 15.0543 13.9812 14.5904 14.2261C14.1264 14.4709 13.729 14.8252 13.4323 15.2581L8.91735 13.2172C9.23803 12.4419 9.23927 11.5711 8.92081 10.7949L13.4295 8.74355C13.8692 9.38019 14.5223 9.83797 15.2702 10.0339C16.0181 10.2298 16.8114 10.1508 17.5062 9.81126C18.2009 9.47175 18.7511 8.89418 19.057 8.18332C19.3628 7.47247 19.4041 6.67541 19.1732 5.93673C18.9423 5.19805 18.4546 4.56668 17.7986 4.15713C17.1426 3.74759 16.3617 3.58701 15.5976 3.70451C14.8334 3.82201 14.1366 4.20982 13.6336 4.79758C13.1306 5.38535 12.8547 6.13414 12.8559 6.90814C12.8588 7.09133 12.8774 7.27394 12.9114 7.45397L8.11826 9.63453C7.65792 9.20273 7.08161 8.91497 6.46015 8.80658C5.83869 8.6982 5.19913 8.77391 4.62006 9.02443C4.04099 9.27494 3.54762 9.68934 3.20057 10.2167C2.85352 10.7441 2.6679 11.3615 2.66651 11.993C2.66513 12.6246 2.84804 13.2428 3.19277 13.7717C3.5375 14.3006 4.02905 14.7171 4.60701 14.9702C5.18498 15.2233 5.82419 15.3018 6.44613 15.1961C7.06806 15.0905 7.64562 14.8053 8.10786 14.3755L12.9135 16.5477C12.8801 16.7276 12.8617 16.9099 12.8587 17.0929C12.8585 17.7339 13.0483 18.3606 13.4039 18.8937C13.7596 19.4268 14.2652 19.8423 14.8567 20.0877C15.4483 20.3331 16.0993 20.3973 16.7273 20.2723C17.3553 20.1473 17.9322 19.8386 18.385 19.3853C18.8378 18.932 19.1461 18.3544 19.271 17.7257C19.3959 17.0969 19.3317 16.4452 19.0866 15.853C18.8415 15.2607 18.4265 14.7546 17.894 14.3985C17.3615 14.0424 16.7355 13.8524 16.0952 13.8526ZM16.0952 5.05605C16.4611 5.05592 16.8189 5.16442 17.1232 5.36785C17.4275 5.57127 17.6647 5.86048 17.8049 6.19889C17.945 6.53731 17.9817 6.90972 17.9104 7.26903C17.8391 7.62835 17.663 7.95842 17.4043 8.21751C17.1456 8.4766 16.816 8.65306 16.4571 8.72458C16.0982 8.7961 15.7262 8.75946 15.3881 8.61931C15.05 8.47915 14.7611 8.24176 14.5578 7.93717C14.3545 7.63258 14.246 7.27447 14.246 6.90814C14.2463 6.41717 14.4412 5.9464 14.788 5.59917C15.1347 5.25193 15.6048 5.0566 16.0952 5.05605ZM5.92217 13.8526C5.55626 13.8527 5.19852 13.7442 4.8942 13.5408C4.58989 13.3374 4.35266 13.0482 4.21254 12.7097C4.07241 12.3713 4.03568 11.9989 4.10698 11.6396C4.17828 11.2803 4.35442 10.9502 4.61311 10.6911C4.87181 10.432 5.20144 10.2556 5.56031 10.1841C5.91919 10.1125 6.29119 10.1492 6.62927 10.2893C6.96734 10.4295 7.25631 10.6669 7.45962 10.9715C7.66292 11.2761 7.77144 11.6342 7.77144 12.0005C7.77089 12.4914 7.5759 12.9621 7.22924 13.3093C6.88257 13.6565 6.41252 13.8518 5.92217 13.8526ZM16.0952 18.9449C15.7293 18.9449 15.3717 18.8363 15.0674 18.6328C14.7632 18.4293 14.5261 18.14 14.3861 17.8016C14.2461 17.4632 14.2094 17.0908 14.2808 16.7315C14.3522 16.3723 14.5284 16.0423 14.7871 15.7832C15.0458 15.5242 15.3755 15.3478 15.7343 15.2764C16.0932 15.2049 16.4651 15.2416 16.8032 15.3818C17.1412 15.5219 17.4301 15.7593 17.6334 16.0639C17.8367 16.3685 17.9452 16.7266 17.9452 17.0929C17.9448 17.584 17.7498 18.0548 17.4029 18.4021C17.0561 18.7493 16.5857 18.9446 16.0952 18.9449Z" fill="white"/>
</svg>
