<svg width="108" height="103" viewBox="0 0 108 103" fill="none" xmlns="http://www.w3.org/2000/svg">
<path d="M54 103C83.8234 103 108 89.5638 108 72.9893C108 56.4148 83.8234 42.9785 54 42.9785C24.1766 42.9785 0 56.4148 0 72.9893C0 89.5638 24.1766 103 54 103Z" fill="#F6F6F6"/>
<path d="M9.06458 81.9039C15.579 85.2098 26.1376 85.2098 32.6497 81.9039C39.1618 78.5979 39.1642 73.2258 32.6497 69.9128C26.1353 66.5998 15.579 66.6068 9.06458 69.9128C2.55014 73.2187 2.5572 78.5979 9.06458 81.9039Z" fill="#E0E0E0"/>
<path d="M98.9353 81.9039C92.4232 85.2098 81.8622 85.2098 75.3501 81.9039C68.838 78.5979 68.838 73.2258 75.3501 69.9128C81.8622 66.5998 92.4232 66.6068 98.9353 69.9128C105.447 73.2187 105.443 78.5979 98.9353 81.9039Z" fill="#E0E0E0"/>
<path d="M67.4099 72.0428L53.9999 64.2715L40.5898 72.0428L53.9999 79.8117L67.4099 72.0428Z" fill="#E0E0E0"/>
<path d="M73.1623 27.0368C77.5852 23.0414 82.3375 18.0305 82.4034 15.0363C80.3496 14.9891 79.879 15.0363 78.5357 16.0588C77.3405 16.9703 72.4353 23.202 70.772 24.2811C68.5699 24.836 64.6081 25.4831 62.7001 25.5185C62.3623 25.5221 62.035 25.4011 61.7802 25.1784C61.0909 24.5834 60.5545 24.6023 59.804 24.2339C59.2159 23.9411 58.9877 23.6058 58.863 23.7097C58.7383 23.8136 58.4983 24.2457 58.8253 24.7251C59.0401 25.0059 59.2927 25.2554 59.5758 25.4665C58.8658 25.3853 58.1705 25.2049 57.5102 24.9305C55.9269 24.2929 55.1387 24.4913 55.7716 26.5835C56.1668 27.8917 57.2938 28.6827 60.4769 28.7654C61.6468 28.8192 62.8191 28.7884 63.9846 28.6733C66.3137 28.3687 68.991 28.3214 70.892 28.0806C71.7365 27.9713 72.5282 27.6074 73.1623 27.0368Z" fill="#FFBDA6"/>
<path d="M82.6245 14.9065C81.1047 14.6255 79.2885 15.0246 78.0769 16.2029C76.8653 17.3813 74.2397 20.4534 74.2397 20.4534C74.2397 20.4534 75.5031 22.8313 77.404 23.3012L79.2862 21.2398L82.6245 14.9065Z" fill="#FF4C4D"/>
<path opacity="0.1" d="M82.6245 14.9065C81.1047 14.6255 79.2885 15.0246 78.0769 16.2029C76.8653 17.3813 74.2397 20.4534 74.2397 20.4534C74.2397 20.4534 75.5031 22.8313 77.404 23.3012L79.2862 21.2398L82.6245 14.9065Z" fill="#F6F6F6"/>
<path d="M91.0893 71.4424H88.3909V75.3859H91.0893V71.4424Z" fill="#FFBDA6"/>
<path d="M81.5973 66.5622L78.9004 66.6553L79.0355 70.5964L81.7323 70.5033L81.5973 66.5622Z" fill="#FFBDA6"/>
<path d="M90.9104 32.9404C90.9104 35.5379 91.2445 52.2565 91.2445 52.2565C91.308 53.0027 92.0021 54.3818 91.8515 57.2319C91.6468 61.114 91.3127 71.9008 91.3127 71.9008C91.3127 71.9008 90.047 73.1594 88.2543 71.9008C88.2543 71.9008 85.8123 57.2461 85.3276 53.3971C84.9065 50.0392 84.189 40.9172 84.189 40.9172L82.815 51.8669C82.815 51.8669 83.255 54.3912 83.3538 56.174C83.4526 57.9569 81.7681 68.0329 81.7681 68.0329C81.3312 68.3076 80.8303 68.4626 80.3151 68.4825C79.7999 68.5024 79.2886 68.3865 78.832 68.1462C78.832 68.1462 77.7968 53.3309 77.5263 51.7134C77.2557 50.0958 78.2979 32.9404 78.2979 32.9404H90.9104Z" fill="#212121"/>
<path d="M86.8499 15.029C87.0522 15.0786 88.2121 15.3526 89.3155 15.6454C89.773 15.7664 90.1777 16.0363 90.4663 16.4127C90.7549 16.789 90.9111 17.2508 90.9105 17.7257V32.9401C89.0284 35.0063 82.4222 35.9697 78.291 32.9401V19.7376C78.291 17.6289 79.4673 15.0952 82.6834 14.9062L86.8499 15.029Z" fill="#F6F6F6"/>
<path d="M87.7581 4.2325C87.9753 4.20688 88.1955 4.23143 88.4018 4.30428C88.6081 4.37713 88.7951 4.49635 88.9485 4.65282C89.459 5.17705 89.3532 6.14758 88.9485 8.37908L87.3699 8.56091L87.7581 4.2325Z" fill="#212121"/>
<path d="M78.5498 3.58864C78.21 3.59008 77.8736 3.52094 77.5617 3.38557C77.0771 3.10692 76.9501 3.65948 77.2159 4.14121C77.3921 4.48505 77.653 4.77794 77.9738 4.99204C78.2945 5.20613 78.6645 5.33432 79.0486 5.3644C79.0627 5.29592 79.5026 4.12704 79.5026 4.12704L78.5498 3.58864Z" fill="#212121"/>
<path d="M81.0106 9.03626C82.714 9.03626 84.0949 7.65024 84.0949 5.94049C84.0949 4.23075 82.714 2.84473 81.0106 2.84473C79.3072 2.84473 77.9263 4.23075 77.9263 5.94049C77.9263 7.65024 79.3072 9.03626 81.0106 9.03626Z" fill="#212121"/>
<path d="M87.0168 8.56096C87.252 8.70264 87.5861 8.24925 87.8755 7.947C88.1649 7.64474 89.1083 7.23859 89.5788 8.22328C90.0493 9.20798 89.1624 10.5847 88.4189 10.8208C87.1391 11.2246 86.9462 10.4005 86.9462 10.4005L86.8497 15.0359C86.8497 15.0359 86.0098 17.095 83.7396 17.3972C81.4693 17.6995 81.9374 15.8269 82.6832 14.906V13.4892C82.6832 13.4892 81.5234 13.6663 80.9587 13.5765C80.0177 13.4301 79.4225 12.6863 79.1378 11.6614C78.679 10.0085 78.5049 8.69083 78.9025 5.46047C79.3307 1.9184 83.4361 1.88061 85.6522 3.28091C87.8684 4.68121 87.0168 8.56096 87.0168 8.56096Z" fill="#FFBDA6"/>
<path d="M86.8992 9.21783C87.0098 9.17532 87.5838 8.21424 87.8755 7.94741C88.2802 7.57667 87.7579 4.23296 87.7579 4.23296C87.7579 4.23296 88.1673 2.9649 87.3674 2.12425C86.5675 1.28359 85.0147 1.41583 83.8878 1.38277C82.7115 1.34027 81.4458 1.26943 79.8389 0.568097C78.2321 -0.133233 78.1098 -0.215881 77.9098 0.492533C77.7098 1.20095 77.6345 2.82557 78.5944 3.91417L79.3943 4.20698C79.3943 4.20698 79.8248 4.59189 81.3258 4.77607C82.4533 4.89941 83.5908 4.89941 84.7183 4.77607C85.1535 4.71704 85.617 5.01221 85.7629 6.4007C85.8711 7.40665 86.231 9.4705 86.8992 9.21783Z" fill="#212121"/>
<path d="M87.7556 4.49244L89.1671 3.72972C89.1219 3.63357 89.0577 3.54766 88.9784 3.4772C88.8991 3.40674 88.8064 3.35321 88.7058 3.31986C88.6052 3.2865 88.499 3.27403 88.3934 3.28319C88.2879 3.29235 88.1854 3.32296 88.092 3.37315C87.9035 3.48071 87.7634 3.65691 87.7008 3.86527C87.6382 4.07364 87.6578 4.29819 87.7556 4.49244Z" fill="#212121"/>
<path d="M82.6858 13.4967C82.6858 13.4967 84.789 13.0716 85.5231 12.6796C85.9555 12.4531 86.3097 12.1008 86.5394 11.6689C86.428 12.0973 86.232 12.4988 85.963 12.8496C85.4242 13.5392 82.6858 14.0469 82.6858 14.0469V13.4967Z" fill="#FFDDCE"/>
<path d="M82.6858 8.03436C82.6891 8.11774 82.7167 8.19833 82.7652 8.26607C82.8138 8.3338 82.8811 8.3857 82.9589 8.41527C83.0366 8.44485 83.1213 8.45081 83.2024 8.4324C83.2835 8.41398 83.3574 8.37202 83.4149 8.31174C83.4724 8.25145 83.5109 8.17552 83.5257 8.0934C83.5405 8.01128 83.5309 7.92661 83.498 7.84994C83.4652 7.77328 83.4106 7.70801 83.341 7.66228C83.2715 7.61655 83.1901 7.59238 83.1069 7.59278C82.9932 7.59648 82.8853 7.64478 82.8066 7.72733C82.7279 7.80987 82.6845 7.92009 82.6858 8.03436Z" fill="#212121"/>
<path d="M83.0857 9.1405C83.0857 9.15627 83.0919 9.17138 83.1029 9.18253C83.114 9.19368 83.1289 9.19994 83.1446 9.19994C83.1602 9.19994 83.1751 9.19368 83.1862 9.18253C83.1972 9.17138 83.2034 9.15627 83.2034 9.1405C83.2034 9.12473 83.1972 9.10961 83.1862 9.09846C83.1751 9.08732 83.1602 9.08105 83.1446 9.08105C83.1289 9.08105 83.114 9.08732 83.1029 9.09846C83.0919 9.10961 83.0857 9.12473 83.0857 9.1405Z" fill="#FFDDCE"/>
<path d="M83.5586 8.87174C83.5582 8.87974 83.5595 8.88773 83.5623 8.89522C83.5651 8.90271 83.5694 8.90954 83.5749 8.91532C83.5804 8.92109 83.587 8.92569 83.5943 8.92882C83.6016 8.93196 83.6095 8.93357 83.6174 8.93356C83.6337 8.93356 83.6492 8.92705 83.6607 8.91545C83.6722 8.90386 83.6786 8.88814 83.6786 8.87174C83.6804 8.86277 83.6802 8.85352 83.678 8.84466C83.6758 8.83579 83.6717 8.82752 83.6659 8.82046C83.6602 8.81339 83.653 8.8077 83.6448 8.80379C83.6366 8.79988 83.6276 8.79785 83.6186 8.79785C83.6095 8.79785 83.6006 8.79988 83.5924 8.80379C83.5842 8.8077 83.577 8.81339 83.5713 8.82046C83.5655 8.82752 83.5614 8.83579 83.5592 8.84466C83.557 8.85352 83.5568 8.86277 83.5586 8.87174Z" fill="#FFDDCE"/>
<path d="M83.7985 9.34307C83.7979 9.35116 83.7989 9.3593 83.8016 9.36695C83.8043 9.37461 83.8085 9.38159 83.8141 9.38744C83.8197 9.39329 83.8264 9.39788 83.8339 9.40089C83.8414 9.4039 83.8494 9.40526 83.8574 9.4049C83.8736 9.4049 83.8892 9.39838 83.9007 9.38679C83.9122 9.37519 83.9186 9.35947 83.9186 9.34307C83.9186 9.32668 83.9122 9.31095 83.9007 9.29936C83.8892 9.28776 83.8736 9.28125 83.8574 9.28125C83.8416 9.28187 83.8266 9.28865 83.8156 9.30018C83.8047 9.3117 83.7985 9.32708 83.7985 9.34307Z" fill="#FFDDCE"/>
<path d="M84.1914 8.93682C84.1914 8.95345 84.1978 8.96943 84.2092 8.9814C84.2206 8.99337 84.2362 9.00041 84.2526 9.00102C84.2607 9.00072 84.2686 8.99881 84.2759 8.99542C84.2832 8.99203 84.2898 8.98721 84.2952 8.98125C84.3007 8.97528 84.305 8.96829 84.3078 8.96067C84.3105 8.95305 84.3118 8.94494 84.3115 8.93682C84.3115 8.92083 84.3054 8.90546 84.2944 8.89393C84.2834 8.8824 84.2685 8.87562 84.2526 8.875C84.2364 8.875 84.2208 8.88151 84.2093 8.89311C84.1979 8.9047 84.1914 8.92043 84.1914 8.93682Z" fill="#FFDDCE"/>
<path d="M82.4199 8.80945C82.4199 8.82521 82.4261 8.84033 82.4372 8.85148C82.4482 8.86263 82.4632 8.86889 82.4788 8.86889C82.4944 8.86889 82.5094 8.86263 82.5204 8.85148C82.5315 8.84033 82.5377 8.82521 82.5377 8.80945C82.5377 8.79368 82.5315 8.77856 82.5204 8.76741C82.5094 8.75626 82.4944 8.75 82.4788 8.75C82.4632 8.75 82.4482 8.75626 82.4372 8.76741C82.4261 8.77856 82.4199 8.79368 82.4199 8.80945Z" fill="#FFDDCE"/>
<path d="M82.5586 9.34363C82.5579 9.35171 82.5589 9.35986 82.5616 9.36751C82.5643 9.37516 82.5686 9.38214 82.5741 9.38799C82.5797 9.39385 82.5864 9.39843 82.5939 9.40144C82.6014 9.40445 82.6094 9.40582 82.6174 9.40545C82.6254 9.40546 82.6332 9.40384 82.6405 9.40071C82.6478 9.39757 82.6544 9.39298 82.6599 9.3872C82.6654 9.38143 82.6697 9.37459 82.6725 9.36711C82.6753 9.35962 82.6766 9.35163 82.6763 9.34363C82.6763 9.32786 82.6701 9.31274 82.659 9.30159C82.648 9.29044 82.633 9.28418 82.6174 9.28418C82.6018 9.28418 82.5868 9.29044 82.5758 9.30159C82.5648 9.31274 82.5586 9.32786 82.5586 9.34363Z" fill="#FFDDCE"/>
<path d="M81.9045 8.99597C81.9045 9.01173 81.9107 9.02685 81.9218 9.038C81.9328 9.04915 81.9478 9.05541 81.9634 9.05541C81.979 9.05541 81.994 9.04915 82.005 9.038C82.0161 9.02685 82.0223 9.01173 82.0223 8.99597C82.0223 8.9802 82.0161 8.96508 82.005 8.95394C81.994 8.94279 81.979 8.93652 81.9634 8.93652C81.9478 8.93652 81.9328 8.94279 81.9218 8.95394C81.9107 8.96508 81.9045 8.9802 81.9045 8.99597Z" fill="#FFDDCE"/>
<path d="M80.0696 8.78588C80.0696 8.80188 80.0757 8.81725 80.0867 8.82878C80.0977 8.84031 80.1127 8.84709 80.1285 8.84771C80.1365 8.8474 80.1444 8.8455 80.1518 8.8421C80.1591 8.83871 80.1656 8.83389 80.1711 8.82793C80.1766 8.82197 80.1808 8.81497 80.1836 8.80735C80.1864 8.79973 80.1877 8.79162 80.1874 8.7835C80.1874 8.76751 80.1813 8.75214 80.1703 8.74061C80.1593 8.72908 80.1443 8.72229 80.1285 8.72168C80.1205 8.72199 80.1126 8.72389 80.1052 8.72729C80.0979 8.73068 80.0914 8.73549 80.0859 8.74146C80.0804 8.74742 80.0762 8.75441 80.0734 8.76204C80.0706 8.76966 80.0693 8.77776 80.0696 8.78588Z" fill="#FFDDCE"/>
<path d="M79.6556 9.07702C79.6552 9.08503 79.6565 9.09301 79.6594 9.1005C79.6622 9.10799 79.6665 9.11483 79.672 9.1206C79.6775 9.12638 79.6841 9.13097 79.6914 9.13411C79.6987 9.13724 79.7065 9.13885 79.7144 9.13885C79.7303 9.13823 79.7452 9.13145 79.7562 9.11992C79.7672 9.10839 79.7733 9.09302 79.7733 9.07702C79.7733 9.06126 79.7671 9.04614 79.7561 9.03499C79.745 9.02384 79.73 9.01758 79.7144 9.01758C79.6988 9.01758 79.6839 9.02384 79.6728 9.03499C79.6618 9.04614 79.6556 9.06126 79.6556 9.07702Z" fill="#FFDDCE"/>
<path d="M79.3309 8.76495C79.3305 8.77307 79.3318 8.78117 79.3346 8.78879C79.3374 8.79642 79.3416 8.80341 79.3471 8.80937C79.3526 8.81534 79.3592 8.82015 79.3665 8.82354C79.3738 8.82694 79.3817 8.82884 79.3897 8.82915C79.4042 8.8263 79.4172 8.81845 79.4266 8.80695C79.436 8.79546 79.4411 8.78103 79.4411 8.76614C79.4411 8.75124 79.436 8.73681 79.4266 8.72532C79.4172 8.71382 79.4042 8.70598 79.3897 8.70312C79.3739 8.70374 79.3589 8.71052 79.3479 8.72205C79.337 8.73358 79.3308 8.74895 79.3309 8.76495Z" fill="#FFDDCE"/>
<path d="M78.9379 8.9085C78.9362 8.91747 78.9364 8.92672 78.9386 8.93559C78.9408 8.94446 78.9449 8.95272 78.9507 8.95979C78.9564 8.96686 78.9636 8.97255 78.9718 8.97646C78.98 8.98037 78.9889 8.98239 78.998 8.98239C79.007 8.98239 79.016 8.98037 79.0242 8.97646C79.0324 8.97255 79.0396 8.96686 79.0453 8.95979C79.0511 8.95272 79.0552 8.94446 79.0574 8.93559C79.0596 8.92672 79.0598 8.91747 79.058 8.9085C79.0581 8.89251 79.0519 8.87713 79.0409 8.86561C79.03 8.85408 79.015 8.84729 78.9992 8.84668C78.9829 8.84668 78.9674 8.85319 78.9559 8.86479C78.9444 8.87638 78.9379 8.89211 78.9379 8.9085Z" fill="#FFDDCE"/>
<path d="M78.8721 8.44561C78.8718 8.45373 78.8731 8.46183 78.8759 8.46946C78.8786 8.47708 78.8829 8.48407 78.8884 8.49004C78.8938 8.496 78.9004 8.50081 78.9077 8.50421C78.915 8.5076 78.9229 8.5095 78.931 8.50981C78.9455 8.50696 78.9585 8.49911 78.9679 8.48762C78.9773 8.47612 78.9824 8.46169 78.9824 8.4468C78.9824 8.43191 78.9773 8.41748 78.9679 8.40598C78.9585 8.39449 78.9455 8.38664 78.931 8.38379C78.9152 8.3844 78.9002 8.39119 78.8892 8.40272C78.8782 8.41424 78.8721 8.42962 78.8721 8.44561Z" fill="#FFDDCE"/>
<path d="M83.1328 6.43866L84.0339 6.93691C84.095 6.8142 84.1074 6.67274 84.0685 6.54121C84.0297 6.40967 83.9424 6.29788 83.8245 6.22849C83.7656 6.19568 83.7007 6.17507 83.6336 6.16789C83.5666 6.16071 83.4989 6.16711 83.4344 6.18671C83.3699 6.20631 83.3099 6.23871 83.2581 6.28199C83.2063 6.32527 83.1637 6.37854 83.1328 6.43866Z" fill="#212121"/>
<path d="M82.8763 10.9561L81.9141 11.3173C81.9352 11.3821 81.9691 11.4419 82.0137 11.4932C82.0582 11.5446 82.1126 11.5865 82.1736 11.6164C82.2345 11.6464 82.3008 11.6637 82.3686 11.6675C82.4364 11.6713 82.5042 11.6614 82.5681 11.6385C82.6977 11.5872 82.8024 11.4873 82.8599 11.3599C82.9174 11.2325 82.9233 11.0877 82.8763 10.9561Z" fill="#FFDDCE"/>
<path d="M79.1898 6.79048L80.0132 6.15527C79.9745 6.10103 79.9254 6.05506 79.8688 6.02006C79.8122 5.98505 79.7492 5.9617 79.6835 5.95137C79.6178 5.94104 79.5507 5.94394 79.4862 5.95989C79.4216 5.97584 79.3608 6.00453 79.3074 6.04428C79.1961 6.12974 79.1219 6.25487 79.1 6.39377C79.0781 6.53268 79.1102 6.67472 79.1898 6.79048Z" fill="#212121"/>
<path d="M79.4439 7.91423C79.4476 7.99693 79.4754 8.07672 79.5238 8.1437C79.5723 8.21068 79.6393 8.26191 79.7165 8.29102C79.7937 8.32014 79.8777 8.32586 79.9581 8.30748C80.0385 8.2891 80.1118 8.24742 80.1688 8.18762C80.2258 8.12783 80.2641 8.05254 80.2789 7.9711C80.2937 7.88967 80.2843 7.80567 80.252 7.72952C80.2196 7.65338 80.1657 7.58845 80.0969 7.54279C80.0281 7.49713 79.9475 7.47274 79.865 7.47266C79.751 7.47575 79.6429 7.52386 79.564 7.60655C79.4852 7.68923 79.442 7.79979 79.4439 7.91423Z" fill="#212121"/>
<path d="M81.326 7.5127L81.1872 10.0559L79.865 9.60251L81.326 7.5127Z" fill="#FFDDCE"/>
<path d="M88.3908 74.0494V73.6621C88.132 73.7755 87.5321 76.0731 86.4617 77.053C85.61 77.8323 84.4502 78.732 84.1537 79.601C83.8573 80.47 85.77 81.0036 86.5652 80.8619C87.4898 80.6967 89.0919 80.0449 89.4942 79.4451C89.8965 78.8453 90.0824 77.948 90.4094 77.5041C90.7364 77.0601 91.4892 76.5595 91.6657 76.0518C91.7645 75.7708 91.6492 75.1521 91.5128 74.635C91.3857 74.1627 91.2516 73.629 91.0893 73.6739C91.0893 73.7329 91.0893 73.9691 91.0893 73.9691C90.8917 74.1887 90.3506 74.4036 89.7389 74.4272C89.3436 74.4319 88.3861 74.3469 88.3908 74.0494Z" fill="#212121"/>
<path d="M79.0085 69.7611C78.8674 69.7611 78.7544 69.9641 78.4439 70.2995C77.9821 70.7673 77.4463 71.1551 76.8582 71.4471C75.8466 71.9548 73.8821 72.734 72.9928 73.1378C72.4376 73.3881 72.4635 74.0611 73.0375 74.4437C73.6116 74.8262 74.9973 75.1049 76.6629 74.7294C77.5687 74.5263 78.7497 73.6857 79.4861 73.7305C80.2225 73.7754 81.6317 73.766 82.1846 73.3858C82.7374 73.0056 82.5139 72.1886 82.3587 71.4967C82.1893 70.7339 81.9446 69.5651 81.6929 69.6076V69.8437C81.3682 70.3349 79.7167 70.538 79.0038 70.1743L79.0085 69.7611Z" fill="#212121"/>
<path d="M84.1961 40.9169C82.7987 40.4813 81.5137 39.7429 80.4319 38.7539C80.4319 38.7539 81.1588 40.1164 83.3139 41.3845L83.1962 48.8323L84.1961 40.9169Z" fill="#212121"/>
<path d="M34.84 27.0359C30.4147 23.0404 25.653 18.0296 25.5989 15.0353C27.6504 14.9881 28.1233 15.0353 29.4643 16.0578C30.6594 16.9693 35.5646 23.201 37.2279 24.2801C39.43 24.8351 43.3942 25.4821 45.2998 25.5175C45.6376 25.5211 45.9649 25.4001 46.2197 25.1775C46.909 24.5824 47.4454 24.6013 48.1959 24.2329C48.7864 23.9401 49.0123 23.6048 49.137 23.7087C49.2993 23.8409 49.5016 24.2447 49.1746 24.7241C48.9598 25.0049 48.7073 25.2544 48.4241 25.4656C49.1342 25.3843 49.8294 25.2039 50.4897 24.9295C52.0731 24.2919 52.8612 24.4903 52.2307 26.5825C51.8354 27.8907 50.7062 28.6818 47.5254 28.7644C46.3555 28.8182 45.1832 28.7874 44.0176 28.6723C41.6885 28.3677 39.0136 28.3205 37.1127 28.0796C36.267 27.9717 35.4742 27.6076 34.84 27.0359Z" fill="#FFBDA6"/>
<path d="M23.07 1.41781H23.7546C25.3145 1.41781 26.8105 2.03978 27.9135 3.14689C29.0165 4.254 29.6362 5.75557 29.6362 7.32126V14.3157H22.343C21.6661 14.315 20.996 14.1806 20.3708 13.92C19.7457 13.6594 19.1778 13.2778 18.6995 12.797C18.2213 12.3161 17.8422 11.7454 17.5837 11.1174C17.3252 10.4895 17.1925 9.81659 17.1931 9.13716V7.31653C17.1931 5.75084 17.8128 4.24928 18.9158 3.14217C20.0188 2.03505 21.5148 1.41309 23.0747 1.41309L23.07 1.41781Z" fill="#212121"/>
<path d="M11.575 69.966L11.8573 69.6732C11.6408 70.1289 10.7421 72.129 10.8339 73.6592C10.9068 74.8753 11.1256 76.4126 10.7115 77.2863C10.2834 78.1978 8.59417 77.0076 8.10953 76.3134C7.53078 75.5082 7.01085 74.2283 7.10731 73.1421C7.17553 72.3793 7.44373 71.6568 7.52137 71.0806C7.59901 70.5044 7.39433 69.574 7.63665 69.0569C7.7684 68.7712 8.3095 68.391 8.79414 68.0958C9.23879 67.8266 9.7352 67.5291 9.81754 67.6826L9.6011 67.9045C9.58933 68.2139 9.83636 68.7782 10.2857 69.2458C10.5727 69.5504 11.3538 70.1974 11.575 69.966Z" fill="#FF4C4D"/>
<path opacity="0.1" d="M11.575 69.966L11.8573 69.6732C11.6408 70.1289 10.7421 72.129 10.8339 73.6592C10.9068 74.8753 11.1256 76.4126 10.7115 77.2863C10.2834 78.1978 8.59417 77.0076 8.10953 76.3134C7.53078 75.5082 7.01085 74.2283 7.10731 73.1421C7.17553 72.3793 7.44373 71.6568 7.52137 71.0806C7.59901 70.5044 7.39433 69.574 7.63665 69.0569C7.7684 68.7712 8.3095 68.391 8.79414 68.0958C9.23879 67.8266 9.7352 67.5291 9.81754 67.6826L9.6011 67.9045C9.58933 68.2139 9.83636 68.7782 10.2857 69.2458C10.5727 69.5504 11.3538 70.1974 11.575 69.966Z" fill="#F6F6F6"/>
<path d="M10.9137 74.7461C10.8879 74.373 10.8549 74.0022 10.8337 73.6575C10.7702 72.5877 11.189 71.2961 11.5231 70.4483C11.7136 69.9761 13.4899 67.4329 13.4899 67.4329L11.0102 65.3076L9.59862 67.9051L9.54921 67.9547V67.9713C9.23631 68.4908 9.07868 70.5357 8.89283 71.7943C8.77049 72.6373 8.83871 73.9196 9.54215 74.824C10.2197 75.6764 10.8455 75.8158 10.9137 74.7461Z" fill="#FFBDA6"/>
<path d="M26.5989 71.0781C26.5604 71.089 26.5263 71.1117 26.5014 71.143C26.4765 71.1744 26.462 71.2128 26.4601 71.2529C26.4271 71.489 26.3895 71.9188 26.3189 72.3155C26.2224 72.8444 26.126 73.6048 26.2201 74.0251C26.3142 74.4455 27.2999 75.0429 27.9634 75.1302C28.6268 75.2176 29.7679 75.8387 30.3019 76.3109C30.9559 76.8871 32.3416 77.3499 33.2733 77.3617C34.3649 77.3736 35.2213 77.1256 35.4706 76.3227C35.5742 75.9898 35.3012 75.5836 33.892 74.9366C33.892 74.9366 33.1862 74.5777 32.7745 74.3321C30.7348 73.0971 30.0337 72.3863 29.4244 71.0994L26.5989 71.0781Z" fill="#FF4C4D"/>
<path opacity="0.1" d="M26.5989 71.0781C26.5604 71.089 26.5263 71.1117 26.5014 71.143C26.4765 71.1744 26.462 71.2128 26.4601 71.2529C26.4271 71.489 26.3895 71.9188 26.3189 72.3155C26.2224 72.8444 26.126 73.6048 26.2201 74.0251C26.3142 74.4455 27.2999 75.0429 27.9634 75.1302C28.6268 75.2176 29.7679 75.8387 30.3019 76.3109C30.9559 76.8871 32.3416 77.3499 33.2733 77.3617C34.3649 77.3736 35.2213 77.1256 35.4706 76.3227C35.5742 75.9898 35.3012 75.5836 33.892 74.9366C33.892 74.9366 33.1862 74.5777 32.7745 74.3321C30.7348 73.0971 30.0337 72.3863 29.4244 71.0994L26.5989 71.0781Z" fill="#F6F6F6"/>
<path d="M30.203 72.1509C29.8598 71.6118 29.6657 70.9908 29.6407 70.3515L29.596 68.6064H26.5894V71.0765V71.4543C26.7587 72.6539 27.8857 72.7955 28.8267 73.4591C29.2972 73.7897 31.1276 75.2018 32.3557 75.4308C33.3579 75.615 33.732 75.2183 33.8661 74.9349C32.5421 74.1519 31.3129 73.2177 30.203 72.1509Z" fill="#FFBDA6"/>
<path d="M16.8825 52.891C15.5452 54.0816 14.4988 55.565 13.824 57.2265C12.8971 59.5949 10.241 66.535 10.241 66.535C10.241 66.535 11.4032 68.5823 12.9841 68.7217C12.9841 68.7217 20.4914 57.6397 21.3548 55.0493C22.23 53.7269 23.324 47.2142 24.1168 42.7087L24.145 42.7583L25.4954 52.3172C25.1461 53.4386 24.8934 54.5881 24.7402 55.753C24.505 58.0978 26.4835 69.449 26.4835 69.449C26.4835 69.449 27.8269 70.1574 29.6855 69.5316C29.6855 69.5316 29.9843 54.7305 30.196 51.9039C30.5489 47.1599 30.7206 33.7803 29.8549 30.9727L17.4683 31.6669C16.4402 34.647 16.3602 36.5502 16.4919 39.8184C16.6143 43.1952 16.8825 52.891 16.8825 52.891Z" fill="#212121"/>
<path d="M24.1379 42.7586L24.8437 38.3452C24.8437 38.3452 27.8198 37.7241 29.1702 36.4561C29.1702 36.4561 27.7586 38.2247 25.6413 38.8033L24.8508 42.2013L25.3895 51.583L24.1379 42.7586Z" fill="#212121"/>
<path d="M21.2796 15.1638C18.5011 15.3551 17.6283 16.498 17.6095 18.177C17.6208 19.5179 17.8456 20.8484 18.2753 22.1181L19.5363 26.4111C19.5363 26.4111 18.4917 28.7914 17.4565 31.6817C22.3171 34.4044 28.3845 32.9734 29.8479 30.9874C29.909 30.5648 29.5326 27.2706 29.3021 25.1171C30.1584 22.9635 30.3843 21.5962 30.022 20.1723C29.3515 17.5276 26.7494 14.9513 25.599 15.0434L21.2796 15.1638Z" fill="#FF4C4D"/>
<path opacity="0.1" d="M21.2796 15.1638C18.5011 15.3551 17.6283 16.498 17.6095 18.177C17.6208 19.5179 17.8456 20.8484 18.2753 22.1181L19.5363 26.4111C19.5363 26.4111 18.4917 28.7914 17.4565 31.6817C22.3171 34.4044 28.3845 32.9734 29.8479 30.9874C29.909 30.5648 29.5326 27.2706 29.3021 25.1171C30.1584 22.9635 30.3843 21.5962 30.022 20.1723C29.3515 17.5276 26.7494 14.9513 25.599 15.0434L21.2796 15.1638Z" fill="#F6F6F6"/>
<path d="M27.4482 32.517L23.164 27.8816L17.6965 19.5459C17.8019 20.4206 17.9958 21.2822 18.2753 22.1174L19.5363 26.4104C19.5363 26.4104 18.4917 28.7907 17.4565 31.681C20.8608 33.5819 24.8579 33.4497 27.4482 32.517Z" fill="#FF4C4D"/>
<path opacity="0.1" d="M27.4482 32.517L23.164 27.8816L17.6965 19.5459C17.8019 20.4206 17.9958 21.2822 18.2753 22.1174L19.5363 26.4104C19.5363 26.4104 18.4917 28.7907 17.4565 31.681C20.8608 33.5819 24.8579 33.4497 27.4482 32.517Z" fill="#F6F6F6"/>
<path d="M17.0635 3.42285L17.9058 4.77828C17.8192 4.83793 17.7215 4.87924 17.6186 4.89968C17.5156 4.92011 17.4096 4.91925 17.3069 4.89715C17.2043 4.87505 17.1073 4.83216 17.0217 4.77112C16.9362 4.71008 16.8639 4.63217 16.8094 4.54215C16.7025 4.358 16.6693 4.13998 16.7165 3.93219C16.7637 3.7244 16.8877 3.54234 17.0635 3.42285Z" fill="#212121"/>
<path d="M16.1438 4.96954L17.7201 4.7334C17.7417 4.83797 17.7416 4.9459 17.7198 5.05044C17.698 5.15497 17.6549 5.25387 17.5933 5.34096C17.5317 5.42805 17.4529 5.50146 17.3618 5.55659C17.2706 5.61173 17.1692 5.64742 17.0637 5.66142C16.8513 5.68624 16.6374 5.62832 16.4663 5.49959C16.2951 5.37087 16.1797 5.18115 16.1438 4.96954Z" fill="#212121"/>
<path d="M27.5894 3.94238C28.2458 4.33201 29.0574 5.99206 28.9774 9.46801C28.9092 12.415 27.9588 13.1423 27.4812 13.3525C27.0036 13.5626 26.0814 13.4351 25.185 13.284V15.0527C25.185 15.0527 26.4248 16.4978 26.3448 17.3078C26.2649 18.1177 24.5568 18.3114 23.3994 17.518C22.6476 16.9763 22.003 16.2988 21.4984 15.5202V11.2461C21.4984 11.2461 20.8938 12.0561 19.9033 11.3973C18.9129 10.7384 18.8776 9.10436 19.4516 8.51874C20.0257 7.93311 21.2655 8.1173 21.4984 8.92725C21.4984 8.92725 22.9265 8.9792 24.8298 7.93075C25.5698 7.53058 26.2054 6.96087 26.6849 6.26788C27.1644 5.57489 27.4743 4.77815 27.5894 3.94238Z" fill="#FFBDA6"/>
<path d="M25.3708 8.72656C25.3716 8.79925 25.3511 8.87059 25.3119 8.93169C25.2726 8.99279 25.2163 9.04096 25.15 9.07021C25.0837 9.09946 25.0103 9.10849 24.9389 9.09618C24.8675 9.08388 24.8013 9.05078 24.7485 9.00101C24.6958 8.95123 24.6587 8.88697 24.642 8.81623C24.6253 8.74549 24.6297 8.67138 24.6547 8.60313C24.6796 8.53488 24.724 8.47549 24.7823 8.43236C24.8406 8.38922 24.9103 8.36425 24.9826 8.36054C25.032 8.35897 25.0813 8.36719 25.1276 8.38473C25.1738 8.40228 25.2162 8.42881 25.2523 8.4628C25.2883 8.49679 25.3173 8.53758 25.3377 8.58284C25.358 8.6281 25.3693 8.67693 25.3708 8.72656Z" fill="#212121"/>
<path d="M25.7991 11.2246L26.6554 11.5009C26.6398 11.5583 26.6128 11.612 26.576 11.6588C26.5393 11.7056 26.4935 11.7444 26.4415 11.7731C26.3895 11.8017 26.3322 11.8195 26.2732 11.8255C26.2141 11.8315 26.1545 11.8255 26.0978 11.8079C25.9825 11.7684 25.8869 11.6856 25.8311 11.5768C25.7754 11.468 25.7639 11.3417 25.7991 11.2246Z" fill="#212121"/>
<path d="M28.3985 7.59048L27.6504 7.06861C27.6821 7.01842 27.7235 6.97516 27.7722 6.94142C27.8209 6.90767 27.8759 6.88414 27.9339 6.87224C27.9919 6.86033 28.0517 6.8603 28.1097 6.87213C28.1677 6.88396 28.2227 6.90742 28.2715 6.9411C28.3732 7.01104 28.4435 7.11828 28.4673 7.23972C28.491 7.36116 28.4663 7.48712 28.3985 7.59048Z" fill="#212121"/>
<path d="M28.227 8.46386C28.2278 8.53656 28.2073 8.60789 28.1681 8.66899C28.1288 8.73009 28.0726 8.77827 28.0062 8.80751C27.9399 8.83676 27.8665 8.84579 27.7951 8.83349C27.7237 8.82119 27.6575 8.78809 27.6048 8.73831C27.552 8.68854 27.5149 8.62428 27.4982 8.55354C27.4815 8.48279 27.4859 8.40869 27.5109 8.34043C27.5358 8.27218 27.5802 8.2128 27.6385 8.16966C27.6968 8.12653 27.7665 8.10156 27.8388 8.09785C27.8882 8.09627 27.9375 8.10449 27.9838 8.12204C28.03 8.13958 28.0724 8.16611 28.1085 8.2001C28.1445 8.2341 28.1735 8.27489 28.1939 8.32015C28.2142 8.3654 28.2255 8.41424 28.227 8.46386Z" fill="#212121"/>
<path d="M26.4224 8.24707L26.4812 10.4786L27.6504 10.1149L26.4224 8.24707Z" fill="#212121"/>
<path d="M25.1849 13.2837C24.2438 13.1609 22.2982 12.6013 21.9971 11.8291C22.1173 12.2198 22.3548 12.5636 22.677 12.8138C23.2581 13.312 25.1849 13.8741 25.1849 13.8741V13.2837Z" fill="#212121"/>
<path d="M54 54.3742L35.9036 43.8755V27.8252L35.5225 27.6056V22.25L54 32.9589V54.3742Z" fill="#FF4C4D"/>
<path opacity="0.1" d="M54 54.3742L35.9036 43.8755V27.8252L35.5225 27.6056V22.25L54 32.9589V54.3742Z" fill="#F6F6F6"/>
<path opacity="0.15" d="M54 38.3121L47.5209 34.5575L47.5185 29.1948L47.0739 28.9445L47.0715 34.2977L35.9036 27.8252V28.595L47.0715 35.0652L47.0692 50.3575L47.5232 50.6196L47.5209 35.3249L54 39.0795V38.3121Z" fill="#F6F6F6"/>
<path d="M54 54.3742L71.9977 43.9511V27.8819L72.4776 27.6056V22.25L54 32.9589V54.3742Z" fill="#FF4C4D"/>
<path opacity="0.1" d="M71.9976 27.8818L60.9285 34.2977L60.9262 28.9445L60.4815 29.1948V34.5575L54 38.312V39.0795L60.4792 35.3273L60.4768 50.6196L60.9309 50.3574L60.9285 35.0699L71.9976 28.6611V27.8818Z" fill="#F6F6F6"/>
<path d="M72.4776 22.2504L54 11.5439L35.5225 22.2504L54 32.9593L72.4776 22.2504Z" fill="#FF4C4D"/>
<path opacity="0.4" d="M72.4776 22.2504L54 11.5439L35.5225 22.2504L54 32.9593L72.4776 22.2504Z" fill="white"/>
<path opacity="0.15" d="M50.8899 22.4632L42.0581 18.4725L42.451 18.2363L51.3581 22.253" fill="#F6F6F6"/>
<path opacity="0.15" d="M57.1077 22.4632L65.9395 18.4725L65.5443 18.2363L56.6372 22.253" fill="#F6F6F6"/>
<path opacity="0.15" d="M60.9261 28.9446L54.3693 24.0589V24.0566L54 23.7803L53.9976 23.7826V23.7803L53.6259 24.0566L53.6282 24.0589L47.0691 28.9446L47.5161 29.1949L53.9976 24.3352L60.4815 29.1949L60.9261 28.9446Z" fill="#F6F6F6"/>
<path d="M65.5492 26.2666V48.2133L60.931 50.8911L60.9263 28.9444L65.5492 26.2666Z" fill="#212121"/>
<path d="M60.9309 50.8911L60.4768 50.6195L60.9309 50.3574V50.8911Z" fill="#212121"/>
<path d="M42.4509 26.2666V48.2133L47.0692 50.8911L47.0739 28.9444L42.4509 26.2666Z" fill="#212121"/>
<path d="M47.0691 50.8911L47.5232 50.6195L47.0691 50.3574V50.8911Z" fill="#F6F6F6"/>
<path d="M47.0739 28.9453L54.0024 23.7833L56.6444 22.2507L65.5491 18.2364L60.9309 15.5586L54.0024 20.7206L51.3627 22.2531L42.4509 26.2674L47.0739 28.9453Z" fill="#757575"/>
<path d="M51.3626 22.2529L50.8921 22.4631L52.4472 23.155L53.6306 24.057L54.0023 23.7807L52.8471 22.9212L51.3626 22.2529Z" fill="#212121"/>
<path d="M60.9262 28.9453L52.8472 22.9214L42.4509 18.2364L47.0715 15.5586L55.1575 21.5825L65.5491 26.2674L60.9262 28.9453Z" fill="#757575"/>
<path d="M52.5509 21.3721C52.5509 21.3721 47.1234 25.8941 38.261 24.8645C38.261 24.8645 42.0252 27.3369 46.627 26.7773C46.627 26.7773 45.9659 28.4633 42.0887 30.5153C42.0887 30.5153 51.7745 30.6051 54.2777 22.5339L52.5509 21.3721Z" fill="#212121"/>
<path d="M47.448 29.4808C50.13 28.4701 53.0567 26.4771 54.2706 22.5407L52.5438 21.3789C51.4945 22.1773 50.3472 22.8368 49.1301 23.3412C49.1301 23.3412 51.0122 24.1677 52.932 23.6576C52.4969 24.9713 51.7804 26.1733 50.833 27.1793C49.8856 28.1853 48.7302 28.9709 47.448 29.4808Z" fill="#212121"/>
<path d="M40.517 15.4566C40.517 15.4566 41.5945 14.1909 44.9 14.7624C46.895 15.1095 50.2828 17.4425 51.9579 21.3294C52.1696 21.8205 52.6448 21.9858 52.8989 22.3164C52.9579 22.3904 53.0224 22.4599 53.0918 22.5242L54.1387 22.536C54.1387 18.9042 52.1084 15.2394 50.1887 13.1188C48.2689 10.9983 45.107 9.96168 42.8532 9.88139C42.0539 9.84432 41.2573 9.99808 40.5288 10.3301C39.9147 12.0468 39.6606 13.7493 40.517 15.4566Z" fill="#212121"/>
<path d="M51.7273 20.8406C51.7273 20.8406 53.6094 20.2031 52.8354 17.1758C53.6475 18.8487 54.0897 20.678 54.1317 22.5385L53.0848 22.5267C53.0154 22.4624 52.9509 22.3929 52.8918 22.3189C52.6378 21.9883 52.1625 21.823 51.9508 21.3318C51.8826 21.1618 51.8049 21.0012 51.7273 20.8406Z" fill="#212121"/>
<path d="M42.4464 17.7828C41.6534 17.1453 40.9972 16.3533 40.5172 15.4545C39.6585 13.7472 39.9126 12.0447 40.5172 10.3232C38.5787 11.1828 37.4212 13.7118 36.9883 15.7544C36.753 16.8973 36.7248 17.8797 36.9177 18.3519C37.4612 19.6365 40.6443 24.8268 54.2778 22.541L54.2637 21.1029C50.85 20.8904 44.8884 19.8467 42.4464 17.7828Z" fill="#212121"/>
<path d="M40.517 15.4566C40.517 15.4566 40.3547 11.4564 42.8532 9.88139C42.0539 9.84432 41.2573 9.99808 40.5288 10.3301C39.9147 12.0468 39.6606 13.7493 40.517 15.4566Z" fill="#212121"/>
<path d="M55.4492 21.3721C55.4492 21.3721 60.8768 25.8941 69.7391 24.8645C69.7391 24.8645 65.9749 27.3369 61.3732 26.7773C61.3732 26.7773 62.0343 28.4633 65.9114 30.5153C65.9114 30.5153 56.2256 30.6051 53.7224 22.5339L55.4492 21.3721Z" fill="#212121"/>
<path d="M55.068 23.6533C56.9784 24.1634 58.8699 23.3369 58.8699 23.3369L58.5146 23.1763L58.4605 23.1527L58.1453 23.0039L58.0747 22.9709L57.7877 22.8268C57.7634 22.8157 57.7398 22.8031 57.7171 22.7891C57.6253 22.7442 57.5383 22.697 57.4513 22.6521L57.3807 22.6143L57.1454 22.4797L57.0772 22.4419L56.856 22.3144L56.7949 22.279L56.5878 22.1609L56.5314 22.1279L56.3526 22.0145L56.3008 21.9815L56.1432 21.8776L56.0961 21.8469L55.9597 21.7548L55.9197 21.7264L55.8044 21.6462L55.7691 21.6202L55.6774 21.5541L55.6468 21.5304L55.5785 21.4785L55.548 21.4549L55.5056 21.4242L55.4774 21.4029L55.4633 21.3888L55.4468 21.377L54.8822 21.7571L53.72 22.5388C56.2208 30.61 65.9066 30.5202 65.909 30.5202C60.9261 30.2841 55.6915 26.4893 55.068 23.6533Z" fill="#212121"/>
<path d="M67.4831 15.4566C67.4831 15.4566 66.4056 14.1909 63.1001 14.7624C61.1051 15.1095 57.7173 17.4425 56.0422 21.3294C55.8305 21.8205 55.3552 21.9858 55.1012 22.3164C55.0421 22.3904 54.9777 22.4599 54.9082 22.5242L53.8613 22.536C53.8613 18.9042 55.8917 15.2394 57.8114 13.1188C59.7312 10.9983 62.8931 9.96168 65.1469 9.88139C65.9462 9.84432 66.7428 9.99808 67.4713 10.3301C68.0854 12.0468 68.3512 13.7493 67.4831 15.4566Z" fill="#212121"/>
<path d="M56.2728 20.8406C56.2728 20.8406 54.3907 20.2031 55.1647 17.1758C54.3526 18.8487 53.9104 20.678 53.8684 22.5385L54.9153 22.5267C54.9847 22.4624 55.0492 22.3929 55.1082 22.3189C55.3623 21.9883 55.8376 21.823 56.0493 21.3318C56.1175 21.1618 56.1952 21.0012 56.2728 20.8406Z" fill="#212121"/>
<path d="M65.5538 17.7828C66.3468 17.1453 67.003 16.3533 67.483 15.4545C68.3417 13.7472 68.0876 12.0447 67.483 10.3232C69.4215 11.1828 70.579 13.7118 71.0119 15.7544C71.2472 16.8973 71.2754 17.8797 71.0825 18.3519C70.539 19.6365 67.3559 24.8268 53.7224 22.541L53.7365 21.1029C57.1502 20.8904 63.1118 19.8467 65.5538 17.7828Z" fill="#212121"/>
<path d="M67.4829 15.4566C67.4829 15.4566 67.6452 11.4564 65.1467 9.88139C65.946 9.84432 66.7426 9.99808 67.4711 10.3301C68.0852 12.0468 68.351 13.7493 67.4829 15.4566Z" fill="#212121"/>
<path d="M55.8822 21.5865C55.8673 21.4475 55.8159 21.315 55.7332 21.2026C55.6505 21.0902 55.5396 21.0018 55.4117 20.9465C54.9589 20.787 54.4793 20.718 54.0001 20.7434C53.5073 20.718 53.0148 20.7985 52.5556 20.9796C52.4379 21.0364 52.3369 21.1228 52.2622 21.2304C52.1876 21.3379 52.142 21.463 52.1298 21.5935C52.0804 22.0233 52.0498 22.7506 52.3321 23.1639C52.7972 23.5637 53.3925 23.778 54.0048 23.766C54.6145 23.7793 55.2073 23.5647 55.6681 23.1639C55.9481 22.7435 55.9199 22.0162 55.8822 21.5865Z" fill="#757575"/>
<path d="M22.6511 29.4663C17.7929 22.1106 15.445 16.0631 19.381 15.5342C20.5832 15.8152 21.4301 17.206 22.4794 20.3065C22.4794 20.3065 24.6321 24.9868 25.599 26.9892C27.4105 28.4462 30.8995 31.712 32.6569 32.4511C32.9698 32.5786 33.4285 32.3047 33.7462 32.1913C34.6025 31.8915 35.0966 32.1016 35.9317 32.0284C36.5858 31.9717 36.9199 31.7427 36.9998 31.8844C37.097 32.0467 37.1268 32.2408 37.0828 32.425C37.0388 32.6092 36.9245 32.7686 36.7646 32.8691C36.5128 33.0621 36.2136 33.1828 35.8988 33.2186C35.8988 33.2186 36.2941 33.5184 37.8139 33.5137C39.5195 33.5137 40.183 33.9695 38.8373 35.6886C37.9927 36.763 36.6564 37.0889 33.6615 36.0073C32.5528 35.6306 31.4725 35.1745 30.4289 34.6425C28.3704 33.509 29.0997 33.9836 27.4811 32.9541C26.1707 32.1205 23.124 30.1889 22.6511 29.4663Z" fill="#FFBDA6"/>
<path d="M85.3489 29.4676C91.127 21.5712 93.2632 16.1754 89.3249 15.6465C88.125 15.9275 87.2757 17.3207 86.2265 20.4212C86.2265 20.4212 83.368 24.9905 82.4034 26.9929C80.5896 28.4499 77.1006 31.7157 75.3455 32.4548C75.035 32.5823 74.5739 32.3084 74.2563 32.195C73.3999 31.8951 72.9059 32.1053 72.0707 32.0321C71.4166 31.9754 71.0826 31.7464 71.0026 31.8881C70.9054 32.0504 70.8756 32.2445 70.9196 32.4287C70.9636 32.6128 71.0779 32.7723 71.2378 32.8727C71.4896 33.0657 71.7888 33.1865 72.1036 33.2222C72.1036 33.2222 71.7084 33.5221 70.1886 33.5174C68.4853 33.5174 67.8218 33.9732 69.1652 35.6922C70.0098 36.7667 71.3461 37.0925 74.341 36.011C75.4496 35.6343 76.5299 35.1782 77.5735 34.6461C79.6344 33.5127 78.9027 33.9873 80.5213 32.9578C81.8318 32.1218 84.8431 30.1595 85.3489 29.4676Z" fill="#FFBDA6"/>
<path d="M88.819 15.5137C88.819 15.5137 90.2141 15.5137 90.9175 16.2032C91.621 16.8927 91.8845 18.1608 91.174 20.1089C90.4635 22.0571 88.5226 25.2449 88.5226 25.2449C88.5226 25.2449 86.2358 25.3701 84.2031 23.3015L86.2311 19.5091C86.2311 19.5091 87.0145 16.6542 88.819 15.5137Z" fill="#FF4C4D"/>
<path opacity="0.1" d="M88.819 15.5137C88.819 15.5137 90.2141 15.5137 90.9175 16.2032C91.621 16.8927 91.8845 18.1608 91.174 20.1089C90.4635 22.0571 88.5226 25.2449 88.5226 25.2449C88.5226 25.2449 86.2358 25.3701 84.2031 23.3015L86.2311 19.5091C86.2311 19.5091 87.0145 16.6542 88.819 15.5137Z" fill="#F6F6F6"/>
</svg>
