<svg width="24" height="24" viewBox="0 0 24 24" fill="none" xmlns="http://www.w3.org/2000/svg">
<path d="M18.1535 8.51013L9.54594 4.23013C3.76397 1.35013 1.39085 3.71013 4.28686 9.46013L5.1617 11.2001C5.41309 11.7101 5.41309 12.3001 5.1617 12.8101L4.28686 14.5401C1.39085 20.2901 3.75391 22.6501 9.54594 19.7701L18.1535 15.4901C22.0149 13.5701 22.0149 10.4301 18.1535 8.51013ZM14.9056 12.7501H9.47555C9.06327 12.7501 8.72138 12.4101 8.72138 12.0001C8.72138 11.5901 9.06327 11.2501 9.47555 11.2501H14.9056C15.3179 11.2501 15.6598 11.5901 15.6598 12.0001C15.6598 12.4101 15.3179 12.7501 14.9056 12.7501Z" fill="#A8A8A8"/>
</svg>
