<svg width="24" height="24" viewBox="0 0 24 24" fill="none" xmlns="http://www.w3.org/2000/svg">
<circle cx="12" cy="12" r="12" fill="#0063F7"/>
<g clip-path="url(#clip0_1149:21096)">
<path fill-rule="evenodd" clip-rule="evenodd" d="M11.1128 2.06641H12.8796C15.3061 2.06641 16.7241 2.4228 17.9829 3.09768C19.2416 3.77256 20.235 4.75834 20.9023 6.01712C21.5772 7.27588 21.9336 8.69388 21.9336 11.1204V12.8796C21.9336 15.3062 21.5772 16.7242 20.9023 17.9829C20.2274 19.2417 19.2416 20.2351 17.9829 20.9024C16.7241 21.5772 15.3061 21.9336 12.8796 21.9336H11.1204C8.69384 21.9336 7.27584 21.5772 6.01708 20.9024C4.75833 20.2275 3.76497 19.2417 3.09768 17.9829C2.4228 16.7242 2.06641 15.3062 2.06641 12.8796V11.1204C2.06641 8.69388 2.4228 7.27588 3.09768 6.01712C3.77256 4.75834 4.75833 3.76498 6.01708 3.09768C7.26828 2.4228 8.69384 2.06641 11.1128 2.06641Z" fill="#0063F7"/>
<path opacity="0.12" fill-rule="evenodd" clip-rule="evenodd" d="M21.9334 12.5898V12.8802C21.9334 15.3067 21.5771 16.7247 20.9022 17.9834C20.2273 19.2422 19.2415 20.2356 17.9828 20.9029C16.724 21.5778 15.306 21.9342 12.8795 21.9342H11.1203C9.13476 21.9342 7.82448 21.6955 6.72416 21.239L4.91016 19.3711L21.9334 12.5898Z" fill="#212121"/>
<path fill-rule="evenodd" clip-rule="evenodd" d="M5.1116 19.4357C6.04076 19.5384 7.20244 19.2734 8.02728 18.873C11.609 20.8527 17.2079 20.7582 20.5969 18.5893C20.7284 18.3921 20.8512 18.1871 20.9651 17.9745C21.6425 16.7112 22.0002 15.288 22.0002 12.8526V11.087C22.0002 8.6516 21.6425 7.22844 20.9651 5.96509C20.2954 4.70174 19.2984 3.71237 18.0351 3.03503C16.7717 2.3577 15.3486 2 12.9132 2H11.14C9.06576 2 7.71928 2.2611 6.58796 2.75957C6.52612 2.81495 6.46544 2.87127 6.40604 2.92854C3.08694 6.12812 2.83463 13.0637 5.64912 16.8313C5.65226 16.8368 5.65573 16.8424 5.65956 16.8481C6.09336 17.4874 5.67478 18.6062 5.02027 19.2606C4.91372 19.3596 4.95178 19.4205 5.1116 19.4357Z" fill="white"/>
<path d="M10.2252 8.7998H6.33516V9.63392H9.03464L6.37304 12.9325C6.28964 13.0538 6.229 13.1676 6.229 13.4254V13.6377H9.89908C10.0811 13.6377 10.2328 13.486 10.2328 13.304V12.8566H7.39676L9.89908 9.71732C9.937 9.67184 10.0052 9.58844 10.0356 9.55052L10.0508 9.52776C10.1948 9.31544 10.2252 9.13345 10.2252 8.91357V8.7998Z" fill="#0063F7"/>
<path d="M15.1766 13.6377H15.7301V8.7998H14.896V13.3571C14.896 13.5088 15.0173 13.6377 15.1766 13.6377Z" fill="#0063F7"/>
<path d="M12.3257 9.87695C11.2792 9.87695 10.4299 10.7262 10.4299 11.7727C10.4299 12.8191 11.2792 13.6684 12.3257 13.6684C13.3721 13.6684 14.2214 12.8191 14.2214 11.7727C14.229 10.7262 13.3797 9.87695 12.3257 9.87695ZM12.3257 12.8874C11.7115 12.8874 11.211 12.3869 11.211 11.7727C11.211 11.1585 11.7115 10.658 12.3257 10.658C12.9399 10.658 13.4403 11.1585 13.4403 11.7727C13.4403 12.3869 12.9475 12.8874 12.3257 12.8874Z" fill="#0063F7"/>
<path d="M18.1946 9.84668C17.1405 9.84668 16.2837 10.7036 16.2837 11.7576C16.2837 12.8116 17.1405 13.6685 18.1946 13.6685C19.2486 13.6685 20.1054 12.8116 20.1054 11.7576C20.1054 10.7036 19.2486 9.84668 18.1946 9.84668ZM18.1946 12.8874C17.5728 12.8874 17.0723 12.387 17.0723 11.7652C17.0723 11.1434 17.5728 10.6429 18.1946 10.6429C18.8164 10.6429 19.3168 11.1434 19.3168 11.7652C19.3168 12.387 18.8164 12.8874 18.1946 12.8874Z" fill="#0063F7"/>
<path d="M13.7824 13.6374H14.2298V9.98242H13.4487V13.3113C13.4487 13.4857 13.6004 13.6374 13.7824 13.6374Z" fill="#0063F7"/>
</g>
<defs>
<clipPath id="clip0_1149:21096">
<rect x="2" y="2" width="20" height="20" fill="white"/>
</clipPath>
</defs>
</svg>
